<?xml version="1.0" encoding="UTF-8" standalone="no"?>
<!DOCTYPE svg PUBLIC "-//W3C//DTD SVG 1.1//EN" "http://www.w3.org/Graphics/SVG/1.1/DTD/svg11.dtd">
<svg xmlns="http://www.w3.org/2000/svg" version="1.1" viewBox="0.00 0.00 326.00 113.00">
<g stroke-width="2.00" fill="none" stroke-linecap="butt">
<path stroke="#32bcec" vector-effect="non-scaling-stroke" d="
  M 52.94 3.92
  Q 45.08 4.42 37.00 4.83
  Q 31.13 5.13 25.24 5.11
  C 20.14 5.09 10.92 4.14 3.25 4.54
  Q 1.69 4.62 1.96 3.25"
/>
<path stroke="#32bcec" vector-effect="non-scaling-stroke" d="
  M 106.02 103.25
  Q 105.58 103.23 105.34 104.39
  A 0.80 0.79 -67.3 0 0 105.68 105.23
  Q 106.90 106.04 108.07 106.90
  Q 109.30 107.81 110.71 107.96
  Q 115.73 108.52 119.61 107.26"
/>
<path stroke="#0b89b6" vector-effect="non-scaling-stroke" d="
  M 15.50 11.32
  L 15.28 9.99
  Q 15.19 9.50 14.71 9.39
  Q 14.34 9.31 13.95 9.41"
/>
<path stroke="#0b89b6" vector-effect="non-scaling-stroke" d="
  M 42.45 9.03
  L 41.25 8.69
  A 1.81 1.80 -82.0 0 0 38.95 10.43
  L 38.97 15.83"
/>
<path stroke="#32bcec" vector-effect="non-scaling-stroke" d="
  M 119.60 2.75
  L 118.76 4.09
  Q 118.49 4.53 117.98 4.56
  Q 101.25 5.55 84.51 4.78
  C 83.42 4.73 82.49 4.36 81.48 4.41
  Q 74.88 4.75 68.72 3.73"
/>
<path stroke="#32bcec" vector-effect="non-scaling-stroke" d="
  M 200.35 22.00
  Q 194.66 9.98 184.18 6.54
  Q 180.55 5.36 176.90 4.23
  C 169.27 1.89 159.67 2.32 152.01 3.00
  Q 147.40 3.41 142.70 5.15
  Q 142.61 5.19 139.24 6.28
  Q 136.51 7.16 134.44 9.03
  Q 133.29 10.07 131.95 13.07
  Q 130.52 16.24 127.99 18.89"
/>
<path stroke="#32bcec" vector-effect="non-scaling-stroke" d="
  M 310.45 5.62
  Q 303.51 6.01 296.82 4.53
  Q 290.65 3.18 288.07 2.97
  Q 273.62 1.80 259.16 3.04
  C 254.74 3.42 250.36 5.13 245.81 6.04
  Q 243.90 6.42 241.41 7.55
  Q 239.69 8.34 237.03 9.32
  Q 234.82 10.13 232.65 12.10
  Q 230.53 14.03 228.73 15.40
  Q 224.68 18.49 222.81 22.51
  Q 220.42 27.65 218.44 30.43
  Q 218.15 30.83 218.17 31.32
  Q 218.39 36.06 214.74 37.82"
/>
<path stroke="#0b89b6" vector-effect="non-scaling-stroke" d="
  M 283.33 6.65
  Q 275.31 3.84 266.38 6.03"
/>
<path stroke="#32bcec" vector-effect="non-scaling-stroke" d="
  M 270.86 64.86
  Q 281.09 63.54 291.25 64.44
  C 296.45 64.90 300.58 64.97 305.30 65.04
  C 310.67 65.11 317.04 63.96 322.99 64.18
  A 1.15 1.15 0.0 0 0 323.82 62.20
  L 323.02 61.43"
/>
<path stroke="#0b89b6" vector-effect="non-scaling-stroke" d="
  M 318.16 68.68
  Q 313.18 68.71 313.13 73.75
  Q 313.08 78.39 313.35 79.99"
/>
<path stroke="#0b89b6" vector-effect="non-scaling-stroke" d="
  M 313.20 97.44
  Q 312.88 99.83 312.68 102.26
  Q 312.52 104.15 310.99 104.11
  C 304.95 103.97 297.49 106.15 291.68 107.82
  Q 281.40 110.78 278.14 111.24
  Q 268.38 112.62 258.51 111.28
  Q 257.81 111.18 254.84 110.30
  Q 253.07 109.78 251.16 109.90
  Q 250.66 109.93 250.21 109.72
  Q 246.85 108.10 243.23 107.30
  Q 238.75 106.30 237.00 105.40
  Q 232.44 103.05 228.82 99.30
  Q 218.67 88.81 214.06 73.21"
/>
<path stroke="#0b89b6" vector-effect="non-scaling-stroke" d="
  M 202.71 85.78
  Q 200.41 88.11 199.36 92.85
  Q 198.28 97.69 194.01 101.54
  Q 190.21 104.96 185.78 107.43
  Q 182.75 109.11 178.60 109.73
  Q 173.39 110.50 168.15 111.06
  Q 167.78 111.10 167.53 111.38
  Q 167.38 111.54 167.21 111.66
  Q 166.96 111.84 166.51 111.85
  Q 161.58 111.98 156.69 111.82
  Q 155.06 111.76 152.50 110.93
  C 149.39 109.93 145.85 110.36 143.14 109.44
  Q 137.13 107.41 132.17 103.42
  Q 131.79 103.11 131.56 102.67
  L 125.37 90.96"
/>
</g>
<path fill="#62cbe8" d="
  M 154.37 0.00
  L 164.97 0.00
  Q 167.19 0.50 169.40 0.00
  L 170.23 0.00
  C 184.28 1.92 197.45 6.26 200.35 22.00
  Q 194.66 9.98 184.18 6.54
  Q 180.55 5.36 176.90 4.23
  C 169.27 1.89 159.67 2.32 152.01 3.00
  Q 147.40 3.41 142.70 5.15
  Q 142.61 5.19 139.24 6.28
  Q 136.51 7.16 134.44 9.03
  Q 133.29 10.07 131.95 13.07
  Q 130.52 16.24 127.99 18.89
  C 131.36 5.40 141.79 1.07 154.37 0.00
  Z"
/>
<path fill="#62cbe8" d="
  M 260.63 0.00
  L 266.98 0.00
  L 280.14 0.00
  L 283.71 0.00
  L 309.61 3.52
  Q 310.13 3.60 310.22 4.12
  L 310.45 5.62
  Q 303.51 6.01 296.82 4.53
  Q 290.65 3.18 288.07 2.97
  Q 273.62 1.80 259.16 3.04
  C 254.74 3.42 250.36 5.13 245.81 6.04
  Q 243.90 6.42 241.41 7.55
  Q 239.69 8.34 237.03 9.32
  Q 234.82 10.13 232.65 12.10
  Q 230.53 14.03 228.73 15.40
  Q 224.68 18.49 222.81 22.51
  Q 220.42 27.65 218.44 30.43
  Q 218.15 30.83 218.17 31.32
  Q 218.39 36.06 214.74 37.82
  C 218.53 16.10 232.05 4.43 253.21 1.14
  Q 256.92 0.57 260.63 0.00
  Z"
/>
<path fill="#62cbe8" d="
  M 52.94 3.92
  Q 45.08 4.42 37.00 4.83
  Q 31.13 5.13 25.24 5.11
  C 20.14 5.09 10.92 4.14 3.25 4.54
  Q 1.69 4.62 1.96 3.25
  L 1.94 2.70
  A 0.97 0.97 0.0 0 1 2.90 1.70
  Q 27.79 1.46 52.25 1.32
  Q 53.14 1.32 52.94 3.92
  Z"
/>
<path fill="#62cbe8" d="
  M 119.60 2.75
  L 118.76 4.09
  Q 118.49 4.53 117.98 4.56
  Q 101.25 5.55 84.51 4.78
  C 83.42 4.73 82.49 4.36 81.48 4.41
  Q 74.88 4.75 68.72 3.73
  Q 68.68 1.60 70.25 1.64
  Q 91.13 2.11 118.38 1.68
  Q 119.41 1.67 119.60 2.75
  Z"
/>
<path fill="#02adf0" d="
  M 310.45 5.62
  L 310.64 30.56
  A 1.10 1.10 0.0 0 1 309.54 31.66
  L 300.14 31.65
  A 1.30 1.30 0.0 0 1 298.84 30.42
  C 298.48 24.34 296.88 15.49 292.87 11.30
  Q 289.36 7.63 283.33 6.65
  Q 275.31 3.84 266.38 6.03
  Q 250.25 8.08 243.64 22.90
  C 238.86 33.60 239.24 41.61 237.82 52.75
  C 236.96 59.45 238.57 65.89 239.00 72.54
  C 239.81 85.09 245.60 99.97 258.19 104.73
  C 266.80 107.99 290.24 107.88 290.29 93.74
  Q 290.32 83.76 290.05 73.75
  C 289.98 71.41 289.82 70.51 287.54 69.48
  C 283.15 67.49 278.88 67.71 271.67 68.04
  Q 271.10 68.06 270.92 67.52
  Q 270.50 66.23 270.86 64.86
  Q 281.09 63.54 291.25 64.44
  C 296.45 64.90 300.58 64.97 305.30 65.04
  C 310.67 65.11 317.04 63.96 322.99 64.18
  A 1.15 1.15 0.0 0 0 323.82 62.20
  L 323.02 61.43
  L 324.05 61.59
  Q 324.72 61.70 324.75 62.38
  L 324.98 67.41
  A 0.61 0.61 0.0 0 1 324.29 68.04
  Q 320.68 67.55 318.16 68.68
  Q 313.18 68.71 313.13 73.75
  Q 313.08 78.39 313.35 79.99
  L 313.20 97.44
  Q 312.88 99.83 312.68 102.26
  Q 312.52 104.15 310.99 104.11
  C 304.95 103.97 297.49 106.15 291.68 107.82
  Q 281.40 110.78 278.14 111.24
  Q 268.38 112.62 258.51 111.28
  Q 257.81 111.18 254.84 110.30
  Q 253.07 109.78 251.16 109.90
  Q 250.66 109.93 250.21 109.72
  Q 246.85 108.10 243.23 107.30
  Q 238.75 106.30 237.00 105.40
  Q 232.44 103.05 228.82 99.30
  Q 218.67 88.81 214.06 73.21
  Q 212.55 64.19 213.00 51.50
  Q 213.29 43.31 214.74 37.82
  Q 218.39 36.06 218.17 31.32
  Q 218.15 30.83 218.44 30.43
  Q 220.42 27.65 222.81 22.51
  Q 224.68 18.49 228.73 15.40
  Q 230.53 14.03 232.65 12.10
  Q 234.82 10.13 237.03 9.32
  Q 239.69 8.34 241.41 7.55
  Q 243.90 6.42 245.81 6.04
  C 250.36 5.13 254.74 3.42 259.16 3.04
  Q 273.62 1.80 288.07 2.97
  Q 290.65 3.18 296.82 4.53
  Q 303.51 6.01 310.45 5.62
  Z"
/>
<path fill="#02adf0" d="
  M 119.60 2.75
  L 119.79 7.48
  Q 119.82 8.17 119.14 8.08
  C 114.41 7.46 105.73 7.78 105.72 13.74
  Q 105.58 58.47 106.02 103.25
  Q 105.58 103.23 105.34 104.39
  A 0.80 0.79 -67.3 0 0 105.68 105.23
  Q 106.90 106.04 108.07 106.90
  Q 109.30 107.81 110.71 107.96
  Q 115.73 108.52 119.61 107.26
  L 119.64 110.91
  Q 119.65 111.40 119.16 111.40
  L 69.53 111.34
  Q 68.71 111.34 68.70 110.53
  L 68.64 106.32
  A 0.57 0.56 -3.9 0 1 69.14 105.75
  L 80.80 104.40
  Q 81.77 104.29 81.98 103.33
  Q 82.73 99.81 82.72 95.75
  Q 82.63 77.36 82.55 59.11
  A 1.32 1.32 0.0 0 0 81.23 57.80
  L 40.26 57.74
  A 1.33 1.33 0.0 0 0 38.93 59.07
  Q 38.98 79.01 39.09 99.25
  C 39.13 106.12 47.28 105.55 51.97 105.39
  A 1.13 1.13 0.0 0 1 53.14 106.57
  L 52.98 110.70
  A 0.81 0.81 0.0 0 1 52.17 111.48
  L 3.42 111.58
  A 1.37 1.37 0.0 0 1 2.05 110.30
  L 1.81 106.55
  A 0.77 0.77 0.0 0 1 2.51 105.74
  C 5.35 105.46 12.40 105.13 14.48 103.47
  A 1.29 1.28 -14.7 0 0 14.95 102.67
  C 16.16 95.51 15.49 87.84 15.49 81.82
  Q 15.48 46.49 15.50 11.32
  L 15.28 9.99
  Q 15.19 9.50 14.71 9.39
  Q 14.34 9.31 13.95 9.41
  L 2.67 7.87
  Q 2.14 7.80 2.01 7.28
  Q 1.58 5.49 1.96 3.25
  Q 1.69 4.62 3.25 4.54
  C 10.92 4.14 20.14 5.09 25.24 5.11
  Q 31.13 5.13 37.00 4.83
  Q 45.08 4.42 52.94 3.92
  L 52.96 7.36
  Q 52.97 7.86 52.47 7.91
  L 42.45 9.03
  L 41.25 8.69
  A 1.81 1.80 -82.0 0 0 38.95 10.43
  L 38.97 15.83
  L 39.01 49.23
  Q 39.01 50.57 40.35 50.58
  L 82.11 50.77
  A 0.51 0.51 0.0 0 0 82.63 50.26
  Q 82.60 32.94 82.86 15.51
  C 82.98 7.21 75.57 7.53 69.64 7.93
  Q 69.10 7.96 68.89 7.48
  Q 68.06 5.62 68.72 3.73
  Q 74.88 4.75 81.48 4.41
  C 82.49 4.36 83.42 4.73 84.51 4.78
  Q 101.25 5.55 117.98 4.56
  Q 118.49 4.53 118.76 4.09
  L 119.60 2.75
  Z"
/>
<path fill="#02adf0" d="
  M 200.35 22.00
  Q 203.61 38.22 190.18 48.02
  C 187.99 49.62 184.96 50.33 182.45 51.57
  A 1.25 1.24 -49.3 0 0 182.62 53.88
  C 192.02 56.82 198.64 59.35 201.41 69.85
  Q 203.53 77.89 202.71 85.78
  Q 200.41 88.11 199.36 92.85
  Q 198.28 97.69 194.01 101.54
  Q 190.21 104.96 185.78 107.43
  Q 182.75 109.11 178.60 109.73
  Q 173.39 110.50 168.15 111.06
  Q 167.78 111.10 167.53 111.38
  Q 167.38 111.54 167.21 111.66
  Q 166.96 111.84 166.51 111.85
  Q 161.58 111.98 156.69 111.82
  Q 155.06 111.76 152.50 110.93
  C 149.39 109.93 145.85 110.36 143.14 109.44
  Q 137.13 107.41 132.17 103.42
  Q 131.79 103.11 131.56 102.67
  L 125.37 90.96
  C 124.39 86.00 124.40 80.68 130.70 80.51
  Q 137.51 80.34 144.32 80.57
  A 0.97 0.96 -14.5 0 1 145.11 81.03
  Q 146.80 83.74 146.81 87.01
  C 146.82 94.07 148.92 105.28 157.61 106.23
  C 161.78 106.69 166.29 106.62 169.66 103.84
  C 174.79 99.60 174.78 93.09 175.69 87.18
  Q 176.44 82.34 176.36 79.24
  Q 176.20 73.04 174.75 68.22
  C 170.59 54.35 159.49 55.66 147.69 57.75
  A 0.57 0.57 0.0 0 1 147.03 57.20
  L 146.95 48.76
  A 0.69 0.68 -83.0 0 1 147.81 48.08
  Q 158.11 50.72 167.99 47.05
  Q 168.47 46.88 168.76 46.45
  Q 175.43 36.73 175.07 25.14
  C 174.81 16.69 173.76 6.61 162.77 6.07
  Q 149.28 5.41 148.66 18.78
  C 148.45 23.45 148.52 30.31 143.50 30.62
  Q 138.12 30.96 132.73 31.08
  C 125.71 31.24 126.26 23.38 127.99 18.89
  Q 130.52 16.24 131.95 13.07
  Q 133.29 10.07 134.44 9.03
  Q 136.51 7.16 139.24 6.28
  Q 142.61 5.19 142.70 5.15
  Q 147.40 3.41 152.01 3.00
  C 159.67 2.32 169.27 1.89 176.90 4.23
  Q 180.55 5.36 184.18 6.54
  Q 194.66 9.98 200.35 22.00
  Z"
/>
<path fill="#14647b" fill-opacity="0.996" d="
  M 283.33 6.65
  Q 274.81 5.53 266.38 6.03
  Q 275.31 3.84 283.33 6.65
  Z"
/>
<path fill="#14647b" fill-opacity="0.996" d="
  M 42.45 9.03
  Q 38.61 10.67 38.97 15.83
  L 38.95 10.43
  A 1.81 1.80 -82.0 0 1 41.25 8.69
  L 42.45 9.03
  Z"
/>
<path fill="#14647b" fill-opacity="0.996" d="
  M 13.95 9.41
  Q 14.34 9.31 14.71 9.39
  Q 15.19 9.50 15.28 9.99
  L 15.50 11.32
  L 13.95 9.41
  Z"
/>
<path fill="#62cbe8" d="
  M 323.02 61.43
  L 323.82 62.20
  A 1.15 1.15 0.0 0 1 322.99 64.18
  C 317.04 63.96 310.67 65.11 305.30 65.04
  C 300.58 64.97 296.45 64.90 291.25 64.44
  Q 281.09 63.54 270.86 64.86
  L 270.91 62.13
  Q 270.93 61.54 271.52 61.54
  L 323.02 61.43
  Z"
/>
<path fill="#14647b" fill-opacity="0.996" d="
  M 318.16 68.68
  C 313.04 70.81 313.10 75.05 313.35 79.99
  Q 313.08 78.39 313.13 73.75
  Q 313.18 68.71 318.16 68.68
  Z"
/>
<path fill="#14647b" fill-opacity="0.996" d="
  M 214.06 73.21
  Q 218.67 88.81 228.82 99.30
  Q 232.44 103.05 237.00 105.40
  Q 238.75 106.30 243.23 107.30
  Q 246.85 108.10 250.21 109.72
  Q 250.66 109.93 251.16 109.90
  Q 253.07 109.78 254.84 110.30
  Q 257.81 111.18 258.51 111.28
  Q 268.38 112.62 278.14 111.24
  Q 281.40 110.78 291.68 107.82
  C 297.49 106.15 304.95 103.97 310.99 104.11
  Q 312.52 104.15 312.68 102.26
  Q 312.88 99.83 313.20 97.44
  L 313.30 105.13
  Q 313.31 105.69 312.75 105.75
  Q 300.44 107.21 297.06 108.29
  Q 282.88 112.80 268.15 113.00
  L 262.74 113.00
  Q 252.36 112.20 248.50 111.26
  Q 218.53 103.99 214.06 73.21
  Z"
/>
<path fill="#14647b" fill-opacity="0.996" d="
  M 202.71 85.78
  C 199.71 106.23 184.04 112.92 165.38 113.00
  L 164.25 113.00
  L 158.37 113.00
  L 154.75 113.00
  C 150.13 112.15 144.79 111.63 140.85 110.19
  Q 127.88 105.47 125.37 90.96
  L 131.56 102.67
  Q 131.79 103.11 132.17 103.42
  Q 137.13 107.41 143.14 109.44
  C 145.85 110.36 149.39 109.93 152.50 110.93
  Q 155.06 111.76 156.69 111.82
  Q 161.58 111.98 166.51 111.85
  Q 166.96 111.84 167.21 111.66
  Q 167.38 111.54 167.53 111.38
  Q 167.78 111.10 168.15 111.06
  Q 173.39 110.50 178.60 109.73
  Q 182.75 109.11 185.78 107.43
  Q 190.21 104.96 194.01 101.54
  Q 198.28 97.69 199.36 92.85
  Q 200.41 88.11 202.71 85.78
  Z"
/>
<path fill="#62cbe8" d="
  M 106.02 103.25
  Q 112.85 105.71 118.50 105.54
  Q 119.67 105.50 119.61 107.26
  Q 115.73 108.52 110.71 107.96
  Q 109.30 107.81 108.07 106.90
  Q 106.90 106.04 105.68 105.23
  A 0.80 0.79 -67.3 0 1 105.34 104.39
  Q 105.58 103.23 106.02 103.25
  Z"
/>
</svg>
