<?xml version="1.0" encoding="UTF-8" standalone="no"?>
<!DOCTYPE svg PUBLIC "-//W3C//DTD SVG 1.1//EN" "http://www.w3.org/Graphics/SVG/1.1/DTD/svg11.dtd">
<svg xmlns="http://www.w3.org/2000/svg" version="1.1" viewBox="0.00 0.00 377.00 80.00">
<g stroke-width="2.00" fill="none" stroke-linecap="butt">
<path stroke="#5d523e" vector-effect="non-scaling-stroke" d="
  M 375.93 2.82
  Q 375.75 1.35 374.25 2.07
  Q 367.37 5.36 352.25 14.21"
/>
<path stroke="#791e1a" vector-effect="non-scaling-stroke" d="
  M 352.25 14.21
  Q 342.45 13.58 332.23 14.39"
/>
<path stroke="#776952" vector-effect="non-scaling-stroke" d="
  M 332.23 14.39
  L 331.05 13.21"
/>
<path stroke="#5d523e" vector-effect="non-scaling-stroke" d="
  M 331.05 13.21
  Q 328.14 7.51 324.74 2.06
  Q 324.36 1.46 323.91 1.36
  Q 323.35 1.24 322.71 1.52"
/>
<path stroke="#bca37a" vector-effect="non-scaling-stroke" d="
  M 331.05 13.21
  C 329.82 13.53 328.90 14.03 327.62 14.06
  Q 316.95 14.34 305.67 13.31"
/>
<path stroke="#5d523e" vector-effect="non-scaling-stroke" d="
  M 305.67 13.31
  L 317.20 4.88"
/>
<path stroke="#5d523e" vector-effect="non-scaling-stroke" d="
  M 374.37 5.27
  Q 371.08 8.33 370.31 12.08"
/>
<path stroke="#5d523e" vector-effect="non-scaling-stroke" d="
  M 350.36 46.35
  L 342.24 32.64"
/>
<path stroke="#bca37a" vector-effect="non-scaling-stroke" d="
  M 342.24 32.64
  Q 342.42 32.04 342.37 31.68"
/>
<path stroke="#be5841" vector-effect="non-scaling-stroke" d="
  M 342.37 31.68
  L 352.25 14.21"
/>
<path stroke="#776952" vector-effect="non-scaling-stroke" d="
  M 305.67 13.31
  Q 303.93 13.97 304.22 15.68"
/>
<path stroke="#5d523e" vector-effect="non-scaling-stroke" d="
  M 304.22 15.68
  Q 304.39 16.21 304.26 16.74"
/>
<path stroke="#d86e56" vector-effect="non-scaling-stroke" d="
  M 332.23 14.39
  Q 336.65 23.42 341.37 30.89
  Q 341.60 31.26 342.37 31.68"
/>
<path stroke="#776952" vector-effect="non-scaling-stroke" d="
  M 342.24 32.64
  Q 341.44 33.11 341.13 33.63
  Q 334.34 45.18 327.49 56.78
  Q 326.72 58.08 325.98 58.07
  Q 325.02 58.06 323.95 56.64"
/>
<path stroke="#776952" vector-effect="non-scaling-stroke" d="
  M 315.74 40.81
  L 313.38 34.98"
/>
<path stroke="#bca37a" vector-effect="non-scaling-stroke" d="
  M 313.38 34.98
  Q 313.32 33.74 312.19 32.55"
/>
<path stroke="#776952" vector-effect="non-scaling-stroke" d="
  M 312.19 32.55
  Q 311.92 31.17 311.01 30.68"
/>
<path stroke="#bca37a" vector-effect="non-scaling-stroke" d="
  M 305.21 19.04
  Q 305.53 17.37 304.22 15.68"
/>
<path stroke="#5d523e" vector-effect="non-scaling-stroke" d="
  M 312.19 32.55
  Q 312.39 32.98 312.22 33.27"
/>
<path stroke="#5d523e" vector-effect="non-scaling-stroke" d="
  M 313.38 34.98
  Q 313.26 34.82 312.95 34.98"
/>
</g>
<path fill="#171816" d="
  M 375.85 0.00
  L 376.63 0.00
  Q 376.69 1.62 375.93 2.82
  Q 375.75 1.35 374.25 2.07
  Q 367.37 5.36 352.25 14.21
  Q 342.45 13.58 332.23 14.39
  L 331.05 13.21
  Q 328.14 7.51 324.74 2.06
  Q 324.36 1.46 323.91 1.36
  Q 323.35 1.24 322.71 1.52
  Q 323.22 0.26 324.25 0.26
  Q 350.05 0.34 375.85 0.00
  Z"
/>
<path fill="#a28c65" d="
  M 331.05 13.21
  C 329.82 13.53 328.90 14.03 327.62 14.06
  Q 316.95 14.34 305.67 13.31
  L 317.20 4.88
  Q 319.39 2.64 322.71 1.52
  Q 323.35 1.24 323.91 1.36
  Q 324.36 1.46 324.74 2.06
  Q 328.14 7.51 331.05 13.21
  Z"
/>
<path fill="#a28c65" d="
  M 375.93 2.82
  L 374.37 5.27
  Q 371.08 8.33 370.31 12.08
  L 350.36 46.35
  L 342.24 32.64
  Q 342.42 32.04 342.37 31.68
  L 352.25 14.21
  Q 367.37 5.36 374.25 2.07
  Q 375.75 1.35 375.93 2.82
  Z"
/>
<path fill="#171816" d="
  M 317.20 4.88
  L 305.67 13.31
  Q 303.93 13.97 304.22 15.68
  Q 304.39 16.21 304.26 16.74
  Q 302.76 14.27 304.15 13.15
  Q 308.56 9.61 317.20 4.88
  Z"
/>
<path fill="#171816" d="
  M 374.37 5.27
  L 370.31 12.08
  Q 371.08 8.33 374.37 5.27
  Z"
/>
<path fill="#d6b98e" d="
  M 305.67 13.31
  Q 316.95 14.34 327.62 14.06
  C 328.90 14.03 329.82 13.53 331.05 13.21
  L 332.23 14.39
  Q 336.65 23.42 341.37 30.89
  Q 341.60 31.26 342.37 31.68
  Q 342.42 32.04 342.24 32.64
  Q 341.44 33.11 341.13 33.63
  Q 334.34 45.18 327.49 56.78
  Q 326.72 58.08 325.98 58.07
  Q 325.02 58.06 323.95 56.64
  L 315.74 40.81
  L 313.38 34.98
  Q 313.32 33.74 312.19 32.55
  Q 311.92 31.17 311.01 30.68
  L 305.21 19.04
  Q 305.53 17.37 304.22 15.68
  Q 303.93 13.97 305.67 13.31
  Z"
/>
<path fill="#da231d" d="
  M 352.25 14.21
  L 342.37 31.68
  Q 341.60 31.26 341.37 30.89
  Q 336.65 23.42 332.23 14.39
  Q 342.45 13.58 352.25 14.21
  Z"
/>
<path fill="#a28c65" d="
  M 304.22 15.68
  Q 305.53 17.37 305.21 19.04
  L 304.26 16.74
  Q 304.39 16.21 304.22 15.68
  Z"
/>
<path fill="#171816" d="
  M 311.01 30.68
  Q 311.92 31.17 312.19 32.55
  Q 312.39 32.98 312.22 33.27
  L 311.01 30.68
  Z"
/>
<path fill="#a28c65" d="
  M 312.19 32.55
  Q 313.32 33.74 313.38 34.98
  Q 313.26 34.82 312.95 34.98
  L 312.22 33.27
  Q 312.39 32.98 312.19 32.55
  Z"
/>
<path fill="#171816" d="
  M 342.24 32.64
  L 350.36 46.35
  L 327.01 59.53
  Q 326.56 59.78 326.12 59.49
  Q 324.80 58.62 323.95 56.64
  Q 325.02 58.06 325.98 58.07
  Q 326.72 58.08 327.49 56.78
  Q 334.34 45.18 341.13 33.63
  Q 341.44 33.11 342.24 32.64
  Z"
/>
<path fill="#171816" d="
  M 90.84 79.22
  L 85.77 79.23
  A 0.33 0.33 0.0 0 1 85.47 78.76
  L 106.18 33.91
  A 0.33 0.33 0.0 0 1 106.78 33.91
  L 127.48 78.78
  A 0.33 0.33 0.0 0 1 127.18 79.25
  L 122.09 79.24
  A 0.33 0.33 0.0 0 1 121.79 79.05
  L 116.99 68.36
  A 0.33 0.33 0.0 0 0 116.69 68.17
  L 96.28 68.19
  A 0.33 0.33 0.0 0 0 95.98 68.38
  L 91.14 79.03
  A 0.33 0.33 0.0 0 1 90.84 79.22
  Z
  M 98.70 62.56
  A 0.48 0.48 0.0 0 0 99.13 63.24
  L 113.81 63.29
  A 0.48 0.48 0.0 0 0 114.25 62.62
  L 106.97 46.06
  A 0.48 0.48 0.0 0 0 106.09 46.06
  L 98.70 62.56
  Z"
/>
<path fill="#171816" d="
  M 0.00 79.02
  L 0.00 77.73
  L 20.25 33.91
  A 0.29 0.29 0.0 0 1 20.78 33.91
  L 41.39 78.53
  A 0.49 0.49 0.0 0 1 40.94 79.23
  L 36.54 79.18
  A 1.01 1.01 0.0 0 1 35.64 78.60
  L 31.15 68.71
  Q 30.93 68.24 30.41 68.23
  L 10.80 68.12
  A 1.05 1.04 -77.6 0 0 9.85 68.73
  L 5.29 78.73
  Q 5.09 79.18 4.59 79.16
  L 0.00 79.02
  Z
  M 12.69 62.56
  A 0.50 0.50 0.0 0 0 13.15 63.27
  L 27.79 63.27
  A 0.50 0.50 0.0 0 0 28.25 62.56
  L 20.93 46.04
  A 0.50 0.50 0.0 0 0 20.01 46.04
  L 12.69 62.56
  Z"
/>
<path fill="#171816" d="
  M 221.48 79.17
  L 216.63 79.16
  A 0.30 0.30 0.0 0 1 216.34 78.80
  L 225.08 34.23
  A 0.30 0.30 0.0 0 1 225.64 34.17
  L 240.34 67.70
  A 0.30 0.30 0.0 0 0 240.88 67.70
  L 255.59 34.14
  A 0.30 0.30 0.0 0 1 256.16 34.20
  L 264.88 78.84
  A 0.30 0.30 0.0 0 1 264.58 79.20
  L 259.78 79.18
  A 0.30 0.30 0.0 0 1 259.49 78.93
  L 254.38 50.40
  A 0.30 0.30 0.0 0 0 253.81 50.33
  L 240.85 79.42
  A 0.30 0.30 0.0 0 1 240.31 79.42
  L 227.45 50.42
  A 0.30 0.30 0.0 0 0 226.88 50.49
  L 221.77 78.92
  A 0.30 0.30 0.0 0 1 221.48 79.17
  Z"
/>
<path fill="#171816" d="
  M 298.04 68.16
  L 277.92 68.11
  A 0.40 0.40 0.0 0 0 277.55 68.34
  L 272.63 78.93
  A 0.40 0.40 0.0 0 1 272.27 79.16
  L 267.40 79.25
  A 0.40 0.40 0.0 0 1 267.03 78.68
  L 287.60 34.10
  A 0.40 0.40 0.0 0 1 288.32 34.10
  L 308.97 78.66
  A 0.40 0.40 0.0 0 1 308.61 79.23
  L 303.67 79.28
  A 0.40 0.40 0.0 0 1 303.30 79.04
  L 298.41 68.39
  A 0.40 0.40 0.0 0 0 298.04 68.16
  Z
  M 280.14 62.64
  A 0.43 0.43 0.0 0 0 280.53 63.25
  L 295.47 63.30
  A 0.43 0.43 0.0 0 0 295.86 62.70
  L 288.45 45.98
  A 0.43 0.43 0.0 0 0 287.67 45.98
  L 280.14 62.64
  Z"
/>
<path fill="#171816" d="
  M 196.72 80.00
  L 191.13 80.00
  C 169.08 76.39 163.91 47.98 183.47 36.87
  C 192.93 31.49 204.32 34.41 211.95 41.69
  A 1.04 1.03 -46.0 0 1 211.97 43.16
  L 209.31 45.87
  A 0.61 0.61 0.0 0 1 208.40 45.83
  C 201.01 36.74 187.90 36.83 180.71 45.70
  C 173.78 54.25 176.24 66.37 185.03 72.49
  Q 191.11 76.72 198.43 74.45
  Q 205.59 72.23 209.05 64.24
  A 1.65 1.65 0.0 0 0 207.52 61.94
  L 198.17 62.07
  A 0.66 0.66 0.0 0 1 197.51 61.42
  L 197.42 57.70
  Q 197.41 57.05 198.05 57.05
  L 214.47 57.06
  Q 214.92 57.06 214.92 57.51
  Q 214.92 76.57 196.72 80.00
  Z"
/>
<path fill="#171816" d="
  M 144.10 80.00
  L 139.37 80.00
  Q 129.94 78.34 127.83 68.62
  Q 127.72 68.07 128.26 67.93
  L 132.46 66.81
  A 0.52 0.52 0.0 0 1 133.11 67.24
  C 134.55 77.69 148.66 78.02 150.22 67.58
  C 152.04 55.35 129.44 59.23 129.75 45.35
  C 130.02 33.31 148.34 30.14 153.94 40.26
  Q 154.22 40.78 153.71 41.08
  L 150.46 42.99
  A 0.53 0.52 -31.3 0 1 149.75 42.82
  C 145.89 36.79 134.47 38.49 135.16 46.27
  C 135.53 50.40 141.79 52.09 145.08 53.49
  C 152.65 56.72 157.80 61.51 155.03 70.78
  Q 152.80 78.27 144.10 80.00
  Z"
/>
<path fill="#171816" d="
  M 50.87 74.40
  L 63.19 74.39
  A 0.60 0.60 0.0 0 1 63.79 74.97
  L 63.91 78.62
  A 0.60 0.60 0.0 0 1 63.31 79.24
  L 45.49 79.25
  A 0.60 0.60 0.0 0 1 44.89 78.65
  L 44.81 35.50
  A 0.60 0.60 0.0 0 1 45.43 34.90
  L 49.72 35.02
  A 0.60 0.60 0.0 0 1 50.30 35.62
  L 50.27 73.80
  A 0.60 0.60 0.0 0 0 50.87 74.40
  Z"
/>
<path fill="#171816" d="
  M 73.99 58.06
  L 73.96 78.49
  A 0.71 0.71 0.0 0 1 73.24 79.20
  L 69.42 79.13
  A 0.71 0.71 0.0 0 1 68.72 78.42
  L 68.67 35.70
  A 0.71 0.71 0.0 0 1 69.38 34.99
  L 89.44 35.06
  A 0.71 0.71 0.0 0 1 90.15 35.80
  L 90.00 39.26
  A 0.71 0.71 0.0 0 1 89.29 39.94
  L 74.64 39.92
  A 0.71 0.71 0.0 0 0 73.93 40.64
  L 74.01 52.03
  A 0.71 0.71 0.0 0 0 74.73 52.74
  L 88.80 52.70
  A 0.71 0.71 0.0 0 1 89.51 53.42
  L 89.49 56.72
  A 0.71 0.71 0.0 0 1 88.77 57.43
  L 74.70 57.35
  A 0.71 0.71 0.0 0 0 73.99 58.06
  Z"
/>
<rect fill="#171816" x="160.76" y="34.98" width="5.40" height="44.22" rx="0.60"/>
<path fill="#171816" d="
  M 312.95 34.98
  Q 313.26 34.82 313.38 34.98
  L 315.74 40.81
  L 312.95 34.98
  Z"
/>
</svg>
