<?xml version="1.0" encoding="UTF-8" standalone="no"?>
<!DOCTYPE svg PUBLIC "-//W3C//DTD SVG 1.1//EN" "http://www.w3.org/Graphics/SVG/1.1/DTD/svg11.dtd">
<svg xmlns="http://www.w3.org/2000/svg" version="1.1" viewBox="0.00 0.00 225.00 225.00">
<g stroke-width="2.00" fill="none" stroke-linecap="butt">
<path stroke="#e78a96" vector-effect="non-scaling-stroke" d="
  M 112.17 92.73
  A 0.32 0.32 0.0 0 1 112.77 92.73
  L 132.10 149.77
  A 0.32 0.32 0.0 0 0 132.40 149.99
  L 137.87 150.00
  A 0.32 0.32 0.0 0 0 138.17 149.58
  L 112.73 75.51
  A 0.32 0.32 0.0 0 0 112.13 75.52
  L 86.89 149.58
  A 0.32 0.32 0.0 0 0 87.20 150.00
  L 92.64 149.98
  A 0.32 0.32 0.0 0 0 92.94 149.76
  L 112.17 92.73"
/>
<path stroke="#e78a96" vector-effect="non-scaling-stroke" d="
  M 62.43 81.59
  A 0.53 0.53 0.0 0 0 61.90 81.06
  L 57.98 81.06
  A 0.53 0.53 0.0 0 0 57.45 81.59
  L 57.45 149.43
  A 0.53 0.53 0.0 0 0 57.98 149.96
  L 61.90 149.96
  A 0.53 0.53 0.0 0 0 62.43 149.43
  L 62.43 81.59"
/>
<path stroke="#e78a96" vector-effect="non-scaling-stroke" d="
  M 74.06 81.48
  A 0.39 0.39 0.0 0 0 73.67 81.09
  L 69.63 81.09
  A 0.39 0.39 0.0 0 0 69.24 81.48
  L 69.24 149.58
  A 0.39 0.39 0.0 0 0 69.63 149.97
  L 73.67 149.97
  A 0.39 0.39 0.0 0 0 74.06 149.58
  L 74.06 81.48"
/>
<path stroke="#e78a96" vector-effect="non-scaling-stroke" d="
  M 85.73 81.42
  A 0.35 0.35 0.0 0 0 85.38 81.07
  L 81.08 81.07
  A 0.35 0.35 0.0 0 0 80.73 81.42
  L 80.73 149.64
  A 0.35 0.35 0.0 0 0 81.08 149.99
  L 85.38 149.99
  A 0.35 0.35 0.0 0 0 85.73 149.64
  L 85.73 81.42"
/>
<path stroke="#e78a96" vector-effect="non-scaling-stroke" d="
  M 144.30 81.38
  A 0.29 0.29 0.0 0 0 144.01 81.09
  L 139.57 81.09
  A 0.29 0.29 0.0 0 0 139.28 81.38
  L 139.28 149.70
  A 0.29 0.29 0.0 0 0 139.57 149.99
  L 144.01 149.99
  A 0.29 0.29 0.0 0 0 144.30 149.70
  L 144.30 81.38"
/>
<path stroke="#e78a96" vector-effect="non-scaling-stroke" d="
  M 155.76 81.41
  A 0.33 0.33 0.0 0 0 155.43 81.08
  L 151.21 81.08
  A 0.33 0.33 0.0 0 0 150.88 81.41
  L 150.88 149.65
  A 0.33 0.33 0.0 0 0 151.21 149.98
  L 155.43 149.98
  A 0.33 0.33 0.0 0 0 155.76 149.65
  L 155.76 81.41"
/>
<path stroke="#e78a96" vector-effect="non-scaling-stroke" d="
  M 167.63 81.45
  A 0.37 0.37 0.0 0 0 167.26 81.08
  L 162.78 81.08
  A 0.37 0.37 0.0 0 0 162.41 81.45
  L 162.41 149.61
  A 0.37 0.37 0.0 0 0 162.78 149.98
  L 167.26 149.98
  A 0.37 0.37 0.0 0 0 167.63 149.61
  L 167.63 81.45"
/>
</g>
<path fill="#ce142d" d="
  M 0.00 0.00
  L 225.00 0.00
  L 225.00 225.00
  L 0.00 225.00
  L 0.00 0.00
  Z
  M 112.17 92.73
  A 0.32 0.32 0.0 0 1 112.77 92.73
  L 132.10 149.77
  A 0.32 0.32 0.0 0 0 132.40 149.99
  L 137.87 150.00
  A 0.32 0.32 0.0 0 0 138.17 149.58
  L 112.73 75.51
  A 0.32 0.32 0.0 0 0 112.13 75.52
  L 86.89 149.58
  A 0.32 0.32 0.0 0 0 87.20 150.00
  L 92.64 149.98
  A 0.32 0.32 0.0 0 0 92.94 149.76
  L 112.17 92.73
  Z
  M 62.43 81.59
  A 0.53 0.53 0.0 0 0 61.90 81.06
  L 57.98 81.06
  A 0.53 0.53 0.0 0 0 57.45 81.59
  L 57.45 149.43
  A 0.53 0.53 0.0 0 0 57.98 149.96
  L 61.90 149.96
  A 0.53 0.53 0.0 0 0 62.43 149.43
  L 62.43 81.59
  Z
  M 74.06 81.48
  A 0.39 0.39 0.0 0 0 73.67 81.09
  L 69.63 81.09
  A 0.39 0.39 0.0 0 0 69.24 81.48
  L 69.24 149.58
  A 0.39 0.39 0.0 0 0 69.63 149.97
  L 73.67 149.97
  A 0.39 0.39 0.0 0 0 74.06 149.58
  L 74.06 81.48
  Z
  M 85.73 81.42
  A 0.35 0.35 0.0 0 0 85.38 81.07
  L 81.08 81.07
  A 0.35 0.35 0.0 0 0 80.73 81.42
  L 80.73 149.64
  A 0.35 0.35 0.0 0 0 81.08 149.99
  L 85.38 149.99
  A 0.35 0.35 0.0 0 0 85.73 149.64
  L 85.73 81.42
  Z
  M 144.30 81.38
  A 0.29 0.29 0.0 0 0 144.01 81.09
  L 139.57 81.09
  A 0.29 0.29 0.0 0 0 139.28 81.38
  L 139.28 149.70
  A 0.29 0.29 0.0 0 0 139.57 149.99
  L 144.01 149.99
  A 0.29 0.29 0.0 0 0 144.30 149.70
  L 144.30 81.38
  Z
  M 155.76 81.41
  A 0.33 0.33 0.0 0 0 155.43 81.08
  L 151.21 81.08
  A 0.33 0.33 0.0 0 0 150.88 81.41
  L 150.88 149.65
  A 0.33 0.33 0.0 0 0 151.21 149.98
  L 155.43 149.98
  A 0.33 0.33 0.0 0 0 155.76 149.65
  L 155.76 81.41
  Z
  M 167.63 81.45
  A 0.37 0.37 0.0 0 0 167.26 81.08
  L 162.78 81.08
  A 0.37 0.37 0.0 0 0 162.41 81.45
  L 162.41 149.61
  A 0.37 0.37 0.0 0 0 162.78 149.98
  L 167.26 149.98
  A 0.37 0.37 0.0 0 0 167.63 149.61
  L 167.63 81.45
  Z"
/>
<path fill="#ffffff" d="
  M 112.17 92.73
  L 92.94 149.76
  A 0.32 0.32 0.0 0 1 92.64 149.98
  L 87.20 150.00
  A 0.32 0.32 0.0 0 1 86.89 149.58
  L 112.13 75.52
  A 0.32 0.32 0.0 0 1 112.73 75.51
  L 138.17 149.58
  A 0.32 0.32 0.0 0 1 137.87 150.00
  L 132.40 149.99
  A 0.32 0.32 0.0 0 1 132.10 149.77
  L 112.77 92.73
  A 0.32 0.32 0.0 0 0 112.17 92.73
  Z"
/>
<rect fill="#ffffff" x="57.45" y="81.06" width="4.98" height="68.90" rx="0.53"/>
<rect fill="#ffffff" x="69.24" y="81.09" width="4.82" height="68.88" rx="0.39"/>
<rect fill="#ffffff" x="80.73" y="81.07" width="5.00" height="68.92" rx="0.35"/>
<rect fill="#ffffff" x="139.28" y="81.09" width="5.02" height="68.90" rx="0.29"/>
<rect fill="#ffffff" x="150.88" y="81.08" width="4.88" height="68.90" rx="0.33"/>
<rect fill="#ffffff" x="162.41" y="81.08" width="5.22" height="68.90" rx="0.37"/>
</svg>
