<?xml version="1.0" encoding="UTF-8" standalone="no"?>
<!DOCTYPE svg PUBLIC "-//W3C//DTD SVG 1.1//EN" "http://www.w3.org/Graphics/SVG/1.1/DTD/svg11.dtd">
<svg xmlns="http://www.w3.org/2000/svg" version="1.1" viewBox="0.00 0.00 225.00 225.00">
<path stroke="#f6731b" stroke-width="2.00" fill="none" stroke-linecap="butt" vector-effect="non-scaling-stroke" d="
  M 72.93 151.74
  C 76.39 148.28 81.55 145.25 85.67 149.84
  Q 94.79 159.99 103.97 170.11
  C 108.48 175.08 113.14 178.98 118.68 172.66
  Q 127.94 162.11 137.34 151.68
  C 141.11 147.50 145.68 145.62 150.04 149.99
  Q 165.08 165.08 180.40 180.11
  Q 180.97 180.67 180.97 179.87
  L 180.97 104.32
  A 4.05 4.03 22.4 0 0 179.76 101.44
  Q 148.65 70.96 117.58 40.65
  C 113.51 36.68 109.26 38.84 105.61 42.39
  Q 74.95 72.20 45.16 101.47
  A 4.30 4.29 67.8 0 0 43.88 104.53
  L 43.97 179.98
  Q 43.97 180.55 44.37 180.14
  Q 58.73 165.94 72.93 151.74"
/>
<path fill="#ed1b2e" d="
  M 0.00 0.00
  L 225.00 0.00
  L 225.00 225.00
  L 0.00 225.00
  L 0.00 0.00
  Z
  M 72.93 151.74
  C 76.39 148.28 81.55 145.25 85.67 149.84
  Q 94.79 159.99 103.97 170.11
  C 108.48 175.08 113.14 178.98 118.68 172.66
  Q 127.94 162.11 137.34 151.68
  C 141.11 147.50 145.68 145.62 150.04 149.99
  Q 165.08 165.08 180.40 180.11
  Q 180.97 180.67 180.97 179.87
  L 180.97 104.32
  A 4.05 4.03 22.4 0 0 179.76 101.44
  Q 148.65 70.96 117.58 40.65
  C 113.51 36.68 109.26 38.84 105.61 42.39
  Q 74.95 72.20 45.16 101.47
  A 4.30 4.29 67.8 0 0 43.88 104.53
  L 43.97 179.98
  Q 43.97 180.55 44.37 180.14
  Q 58.73 165.94 72.93 151.74
  Z"
/>
<path fill="#ffcb08" d="
  M 85.67 149.84
  C 81.55 145.25 76.39 148.28 72.93 151.74
  Q 58.73 165.94 44.37 180.14
  Q 43.97 180.55 43.97 179.98
  L 43.88 104.53
  A 4.30 4.29 67.8 0 1 45.16 101.47
  Q 74.95 72.20 105.61 42.39
  C 109.26 38.84 113.51 36.68 117.58 40.65
  Q 148.65 70.96 179.76 101.44
  A 4.05 4.03 22.4 0 1 180.97 104.32
  L 180.97 179.87
  Q 180.97 180.67 180.40 180.11
  Q 165.08 165.08 150.04 149.99
  C 145.68 145.62 141.11 147.50 137.34 151.68
  Q 127.94 162.11 118.68 172.66
  C 113.14 178.98 108.48 175.08 103.97 170.11
  Q 94.79 159.99 85.67 149.84
  Z"
/>
</svg>
