<?xml version="1.0" encoding="UTF-8" standalone="no"?>
<!DOCTYPE svg PUBLIC "-//W3C//DTD SVG 1.1//EN" "http://www.w3.org/Graphics/SVG/1.1/DTD/svg11.dtd">
<svg xmlns="http://www.w3.org/2000/svg" version="1.1" viewBox="0.00 0.00 700.00 106.00">
<g stroke-width="2.00" fill="none" stroke-linecap="butt">
<path stroke="#ae9599" vector-effect="non-scaling-stroke" d="
  M 156.07 27.16
  L 156.77 28.93"
/>
<path stroke="#b4d6de" vector-effect="non-scaling-stroke" d="
  M 152.04 35.99
  Q 150.84 37.66 149.07 38.20"
/>
<path stroke="#b4d6de" vector-effect="non-scaling-stroke" d="
  M 110.51 43.22
  L 103.38 41.72"
/>
<path stroke="#ae9599" vector-effect="non-scaling-stroke" d="
  M 172.69 63.05
  L 171.20 70.18"
/>
<path stroke="#ae9599" vector-effect="non-scaling-stroke" d="
  M 167.66 72.04
  Q 166.69 72.10 167.12 72.31"
/>
<path stroke="#fabeba" vector-effect="non-scaling-stroke" d="
  M 167.12 72.31
  Q 161.39 72.33 158.08 68.00"
/>
<path stroke="#ae9599" vector-effect="non-scaling-stroke" d="
  M 158.08 68.00
  Q 158.13 67.91 158.17 67.82"
/>
<path stroke="#fabeba" vector-effect="non-scaling-stroke" d="
  M 146.54 49.41
  Q 147.53 43.01 149.50 39.75
  Q 151.24 36.89 156.06 38.00"
/>
<path stroke="#fee08b" vector-effect="non-scaling-stroke" d="
  M 102.52 41.58
  Q 106.59 43.92 111.48 43.48"
/>
<path stroke="#b4d6de" vector-effect="non-scaling-stroke" d="
  M 158.08 68.00
  Q 159.37 74.32 167.12 72.31"
/>
</g>
<path fill="#fdc016" d="
  M 70.26 24.38
  C 68.55 26.03 68.47 28.29 67.64 30.60
  A 1.32 1.29 87.3 0 1 67.00 31.32
  C 63.65 33.01 59.08 31.66 55.60 30.92
  C 51.42 30.04 50.16 26.49 53.53 23.52
  Q 65.30 13.13 77.65 3.40
  Q 79.22 2.16 81.24 2.39
  Q 95.78 4.09 110.34 5.68
  C 118.58 6.59 115.02 13.18 111.43 16.43
  C 108.98 18.67 106.44 15.16 104.63 13.89
  C 99.21 10.09 90.68 17.70 95.19 23.04
  C 97.28 25.52 101.88 23.89 104.30 22.67
  A 1.14 1.11 33.3 0 1 104.92 22.55
  Q 106.99 22.78 105.99 24.50
  C 103.03 29.59 97.32 39.17 91.79 38.09
  Q 84.61 36.69 77.21 35.27
  A 1.59 1.58 29.3 0 1 76.44 32.54
  C 78.82 30.39 84.76 25.69 78.02 23.29
  Q 73.19 21.56 70.26 24.38
  Z"
/>
<path fill="#68acbc" d="
  M 156.07 27.16
  L 156.77 28.93
  Q 156.34 28.34 155.96 29.15
  C 155.53 30.05 155.83 32.01 155.56 33.20
  A 1.05 1.05 0.0 0 1 154.95 33.93
  Q 153.07 34.72 152.04 35.99
  Q 150.84 37.66 149.07 38.20
  L 143.52 43.54
  Q 143.13 43.92 142.68 43.60
  Q 139.44 41.24 136.47 38.76
  C 132.01 35.03 134.21 29.47 127.27 28.61
  C 122.45 28.01 119.21 28.99 117.79 33.74
  Q 116.01 39.72 110.51 43.22
  L 103.38 41.72
  L 103.85 41.35
  Q 104.25 41.03 104.04 40.56
  C 103.23 38.77 102.71 37.16 103.27 35.13
  C 104.49 30.77 106.50 26.88 107.38 22.46
  C 107.97 19.48 110.75 18.74 112.20 17.26
  Q 115.76 13.64 117.45 8.77
  Q 118.21 6.58 120.48 6.67
  Q 127.15 6.95 133.77 7.47
  Q 135.11 7.58 137.30 10.01
  Q 137.59 10.33 137.19 10.48
  Q 133.72 11.77 132.53 12.96
  C 129.36 16.08 130.83 19.41 134.76 20.34
  Q 139.27 21.42 143.48 18.49
  C 146.31 16.52 144.96 13.74 144.19 11.13
  Q 144.06 10.68 144.45 10.43
  Q 146.64 9.04 148.75 9.20
  Q 157.14 9.82 165.50 10.70
  Q 165.92 10.74 166.06 10.98
  Q 166.34 11.43 165.82 11.32
  C 164.74 11.09 163.86 11.16 163.14 12.13
  C 161.30 14.60 153.88 23.32 155.26 26.65
  Q 155.57 27.39 156.07 27.16
  Z"
/>
<ellipse fill="#68acbc" cx="0.00" cy="0.00" transform="translate(140.13,10.44) rotate(0.4)" rx="1.47" ry="0.32"/>
<path fill="#f47d75" d="
  M 172.69 63.05
  L 171.20 70.18
  L 167.66 72.04
  Q 166.69 72.10 167.12 72.31
  Q 161.39 72.33 158.08 68.00
  Q 158.13 67.91 158.17 67.82
  C 155.67 61.24 162.28 61.69 162.78 57.44
  C 163.21 53.82 157.58 52.80 155.09 52.94
  Q 148.87 53.30 146.54 49.41
  Q 147.53 43.01 149.50 39.75
  Q 151.24 36.89 156.06 38.00
  Q 160.95 43.09 166.48 39.85
  C 171.55 36.88 170.51 28.91 164.50 28.21
  Q 162.62 27.99 156.77 28.93
  L 156.07 27.16
  C 158.16 23.44 165.70 13.33 170.67 14.23
  Q 186.43 17.09 202.25 19.49
  C 206.99 20.21 204.50 25.67 203.49 28.24
  Q 197.38 43.80 192.26 59.71
  Q 191.60 61.77 189.17 62.55
  Q 188.71 62.70 188.26 62.53
  Q 184.24 61.07 180.33 59.53
  Q 173.86 56.98 172.69 63.05
  Z"
/>
<path fill="#f47d75" d="
  M 0.00 47.08
  L 0.00 42.23
  Q 11.92 38.72 17.43 37.40
  C 20.88 36.58 20.99 32.73 18.35 30.98
  C 10.10 25.49 15.24 13.12 24.77 15.22
  C 30.07 16.39 32.25 21.08 30.92 26.12
  C 30.25 28.62 28.70 31.94 32.08 33.39
  Q 33.15 33.85 34.94 33.38
  Q 43.39 31.16 49.62 30.34
  C 52.72 29.93 53.12 32.09 53.92 34.77
  Q 56.28 42.72 57.16 46.84
  C 57.85 50.12 55.45 51.35 52.57 50.59
  C 49.88 49.88 45.08 48.60 43.13 51.12
  Q 39.18 56.25 42.94 61.49
  C 47.49 67.83 52.62 61.96 56.53 58.91
  A 2.13 2.13 0.0 0 1 59.86 59.90
  Q 62.79 68.46 64.25 78.11
  C 64.63 80.58 63.74 81.88 61.39 82.44
  Q 36.32 88.43 11.79 94.42
  A 2.10 2.09 78.7 0 1 9.22 92.70
  Q 5.75 69.60 0.00 47.08
  Z"
/>
<path fill="#fdc016" d="
  M 102.52 41.58
  Q 106.59 43.92 111.48 43.48
  Q 115.10 43.38 117.18 40.79
  C 119.23 38.25 117.93 34.84 119.92 32.42
  C 123.26 28.39 131.28 28.61 132.07 34.55
  C 132.74 39.63 126.00 40.08 125.93 44.74
  Q 125.90 47.03 128.20 47.77
  Q 133.41 49.43 138.70 50.76
  Q 141.12 51.36 142.06 52.27
  C 144.80 54.91 141.02 62.17 139.57 65.02
  A 2.05 2.05 0.0 0 1 136.14 65.35
  C 133.39 61.86 129.84 59.86 125.70 62.69
  C 118.84 67.39 123.16 77.41 131.03 75.51
  A 1.59 1.59 0.0 0 1 132.87 77.66
  Q 129.58 85.59 124.62 92.84
  C 123.83 94.00 121.40 94.03 119.91 93.70
  Q 93.97 88.02 68.08 82.43
  A 3.55 3.55 0.0 0 1 66.27 76.51
  C 69.43 73.22 74.15 69.00 75.44 64.38
  A 1.78 1.78 0.0 0 0 73.95 62.14
  C 71.63 61.85 68.63 61.93 66.90 60.48
  Q 64.74 58.66 65.39 55.70
  Q 66.89 48.94 73.73 48.98
  C 78.24 49.01 80.08 53.66 83.43 53.71
  C 87.47 53.77 91.94 46.18 93.46 42.65
  Q 93.66 42.19 94.10 41.97
  C 97.09 40.49 99.37 41.35 102.52 41.58
  Z"
/>
<path fill="#ffffff" d="
  M 152.04 35.99
  Q 154.36 35.87 156.06 38.00
  Q 151.24 36.89 149.50 39.75
  Q 147.53 43.01 146.54 49.41
  Q 145.69 44.43 149.07 38.20
  Q 150.84 37.66 152.04 35.99
  Z"
/>
<path fill="#ffffff" d="
  M 398.32 64.44
  L 404.62 64.40
  A 0.93 0.93 0.0 0 1 405.55 65.40
  L 405.19 70.47
  A 0.93 0.93 0.0 0 1 404.26 71.33
  L 388.88 71.33
  A 0.93 0.93 0.0 0 1 387.95 70.40
  L 387.93 39.42
  A 0.93 0.93 0.0 0 1 388.86 38.49
  L 396.44 38.48
  A 0.93 0.93 0.0 0 1 397.37 39.41
  L 397.39 63.51
  A 0.93 0.93 0.0 0 0 398.32 64.44
  Z"
/>
<path fill="#ffffff" d="
  M 682.37 67.22
  L 681.72 70.49
  A 0.92 0.92 0.0 0 1 680.83 71.23
  L 673.69 71.39
  A 0.92 0.92 0.0 0 1 672.77 70.31
  L 678.26 39.26
  A 0.92 0.92 0.0 0 1 679.16 38.51
  L 691.75 38.42
  A 0.92 0.92 0.0 0 1 692.66 39.18
  L 698.39 70.13
  A 0.92 0.92 0.0 0 1 697.50 71.22
  L 690.06 71.35
  A 0.92 0.92 0.0 0 1 689.14 70.60
  L 688.48 67.17
  A 0.92 0.92 0.0 0 0 687.56 66.43
  L 683.26 66.48
  A 0.92 0.92 0.0 0 0 682.37 67.22
  Z
  M 683.64 59.94
  A 0.31 0.31 0.0 0 0 683.94 60.31
  L 687.21 60.33
  A 0.31 0.31 0.0 0 0 687.51 59.97
  L 685.95 50.29
  A 0.31 0.31 0.0 0 0 685.34 50.28
  L 683.64 59.94
  Z"
/>
<path fill="#ffffff" d="
  M 224.79 60.03
  L 224.54 70.77
  Q 224.53 71.32 223.98 71.32
  L 216.20 71.30
  A 0.85 0.84 -90.0 0 1 215.36 70.45
  L 215.41 39.28
  Q 215.42 38.53 216.16 38.52
  Q 222.92 38.41 229.99 38.60
  C 233.69 38.70 236.23 40.39 237.58 43.92
  Q 240.36 51.22 235.12 57.43
  Q 234.79 57.82 234.95 58.29
  L 238.80 70.51
  A 0.59 0.59 0.0 0 1 238.24 71.28
  L 229.48 71.27
  A 1.06 1.05 -7.5 0 1 228.46 70.49
  L 225.63 59.93
  A 0.43 0.43 0.0 0 0 224.79 60.03
  Z
  M 224.66 47.10
  L 224.78 53.17
  A 0.70 0.70 0.0 0 0 225.50 53.86
  L 225.75 53.85
  A 2.61 2.35 88.8 0 0 228.04 51.20
  L 228.00 48.94
  A 2.61 2.35 88.8 0 0 225.59 46.38
  L 225.34 46.38
  A 0.70 0.70 0.0 0 0 224.66 47.10
  Z"
/>
<path fill="#ffffff" d="
  M 254.54 67.07
  L 253.75 70.56
  A 0.88 0.88 0.0 0 1 252.90 71.25
  L 245.82 71.26
  A 0.88 0.88 0.0 0 1 244.96 70.22
  L 250.57 39.21
  A 0.88 0.88 0.0 0 1 251.44 38.49
  L 264.03 38.49
  A 0.88 0.88 0.0 0 1 264.89 39.21
  L 270.59 70.25
  A 0.88 0.88 0.0 0 1 269.72 71.29
  L 262.16 71.27
  A 0.88 0.88 0.0 0 1 261.30 70.55
  L 260.65 67.09
  A 0.88 0.88 0.0 0 0 259.79 66.37
  L 255.39 66.38
  A 0.88 0.88 0.0 0 0 254.54 67.07
  Z
  M 257.98 49.65
  A 0.32 0.32 0.0 0 0 257.34 49.65
  L 255.61 59.99
  A 0.32 0.32 0.0 0 0 255.93 60.36
  L 259.29 60.39
  A 0.32 0.32 0.0 0 0 259.61 60.02
  L 257.98 49.65
  Z"
/>
<path fill="#ffffff" d="
  M 288.80 51.44
  L 294.19 51.41
  A 1.00 1.00 0.0 0 1 295.20 52.43
  L 295.09 57.52
  A 1.00 1.00 0.0 0 1 294.09 58.50
  L 288.82 58.48
  A 1.00 1.00 0.0 0 0 287.82 59.48
  L 287.76 70.28
  A 1.00 1.00 0.0 0 1 286.76 71.28
  L 279.53 71.28
  A 1.00 1.00 0.0 0 1 278.53 70.28
  L 278.49 39.48
  A 1.00 1.00 0.0 0 1 279.49 38.48
  L 296.14 38.51
  A 1.00 1.00 0.0 0 1 297.14 39.58
  L 296.72 45.50
  A 1.00 1.00 0.0 0 1 295.72 46.43
  L 288.72 46.40
  A 1.00 1.00 0.0 0 0 287.72 47.43
  L 287.79 50.47
  A 1.00 1.00 0.0 0 0 288.80 51.44
  Z"
/>
<path fill="#ffffff" d="
  M 313.42 59.50
  L 313.59 70.23
  A 1.04 1.04 0.0 0 1 312.55 71.29
  L 304.91 71.28
  A 1.04 1.04 0.0 0 1 303.87 70.24
  L 303.75 39.56
  A 1.04 1.04 0.0 0 1 304.79 38.52
  L 321.47 38.48
  A 1.04 1.04 0.0 0 1 322.51 39.57
  L 322.25 45.39
  A 1.04 1.04 0.0 0 1 321.20 46.38
  L 314.25 46.26
  A 1.04 1.04 0.0 0 0 313.20 47.38
  L 313.43 50.47
  A 1.04 1.04 0.0 0 0 314.47 51.44
  L 319.43 51.41
  A 1.04 1.04 0.0 0 1 320.47 52.45
  L 320.50 57.31
  A 1.04 1.04 0.0 0 1 319.47 58.36
  L 314.44 58.44
  A 1.04 1.04 0.0 0 0 313.42 59.50
  Z"
/>
<path fill="#ffffff" d="
  M 337.34 67.11
  L 336.58 70.56
  A 0.89 0.89 0.0 0 1 335.72 71.26
  L 328.64 71.32
  A 0.89 0.89 0.0 0 1 327.76 70.27
  L 333.32 39.22
  A 0.89 0.89 0.0 0 1 334.20 38.49
  L 346.88 38.51
  A 0.89 0.89 0.0 0 1 347.75 39.24
  L 353.37 70.28
  A 0.89 0.89 0.0 0 1 352.50 71.33
  L 345.04 71.34
  A 0.89 0.89 0.0 0 1 344.17 70.62
  L 343.46 67.10
  A 0.89 0.89 0.0 0 0 342.58 66.39
  L 338.20 66.42
  A 0.89 0.89 0.0 0 0 337.34 67.11
  Z
  M 339.40 60.37
  L 341.56 60.35
  A 0.26 0.26 0.0 0 0 341.82 60.09
  L 341.82 59.98
  A 10.73 1.27 89.5 0 0 340.45 49.26
  L 340.31 49.26
  A 10.73 1.27 89.5 0 0 339.14 60.00
  L 339.14 60.11
  A 0.26 0.26 0.0 0 0 339.40 60.37
  Z"
/>
<path fill="#ffffff" d="
  M 370.74 59.25
  L 370.73 62.63
  A 0.89 0.89 0.0 0 0 371.63 63.52
  L 379.13 63.37
  A 0.89 0.89 0.0 0 1 380.04 64.34
  L 379.47 70.48
  A 0.89 0.89 0.0 0 1 378.59 71.29
  L 362.11 71.27
  A 0.89 0.89 0.0 0 1 361.22 70.38
  L 361.27 39.39
  A 0.89 0.89 0.0 0 1 362.16 38.50
  L 379.14 38.50
  A 0.89 0.89 0.0 0 1 380.03 39.45
  L 379.60 45.56
  A 0.89 0.89 0.0 0 1 378.70 46.39
  L 371.58 46.29
  A 0.89 0.89 0.0 0 0 370.67 47.21
  L 370.77 50.63
  A 0.89 0.89 0.0 0 0 371.67 51.49
  L 377.49 51.40
  A 0.89 0.89 0.0 0 1 378.39 52.26
  L 378.52 57.65
  A 0.89 0.89 0.0 0 1 377.60 58.56
  L 371.66 58.37
  A 0.89 0.89 0.0 0 0 370.74 59.25
  Z"
/>
<path fill="#ffffff" d="
  M 422.69 63.42
  L 430.05 63.53
  A 0.94 0.94 0.0 0 1 430.97 64.57
  L 430.39 70.42
  A 0.94 0.94 0.0 0 1 429.46 71.27
  L 413.13 71.29
  A 0.94 0.94 0.0 0 1 412.19 70.35
  L 412.22 39.43
  A 0.94 0.94 0.0 0 1 413.16 38.49
  L 430.02 38.50
  A 0.94 0.94 0.0 0 1 430.96 39.49
  L 430.67 45.44
  A 0.94 0.94 0.0 0 1 429.74 46.34
  L 422.62 46.41
  A 0.94 0.94 0.0 0 0 421.69 47.38
  L 421.81 50.53
  A 0.94 0.94 0.0 0 0 422.73 51.43
  L 428.50 51.52
  A 0.94 0.94 0.0 0 1 429.43 52.47
  L 429.36 57.38
  A 0.94 0.94 0.0 0 1 428.46 58.30
  L 422.69 58.53
  A 0.94 0.94 0.0 0 0 421.78 59.46
  L 421.77 62.48
  A 0.94 0.94 0.0 0 0 422.69 63.42
  Z"
/>
<path fill="#ffffff" d="
  M 463.50 56.03
  L 463.56 70.23
  A 1.05 1.04 90.0 0 1 462.52 71.28
  L 455.57 71.27
  A 0.67 0.67 0.0 0 1 454.90 70.57
  L 456.03 39.22
  Q 456.06 38.49 456.78 38.49
  L 467.48 38.51
  A 0.98 0.96 85.0 0 1 468.43 39.32
  L 470.99 54.42
  A 0.35 0.35 0.0 0 0 471.68 54.42
  L 473.91 39.92
  Q 474.12 38.50 475.57 38.50
  L 485.16 38.50
  A 1.20 1.20 0.0 0 1 486.36 39.66
  L 487.43 70.67
  A 0.60 0.59 -1.4 0 1 486.83 71.29
  L 479.52 71.27
  A 0.68 0.68 0.0 0 1 478.84 70.55
  Q 479.19 64.41 478.79 58.28
  Q 478.48 53.61 477.76 58.23
  L 475.82 70.54
  Q 475.70 71.27 474.96 71.27
  L 467.87 71.28
  A 1.39 1.38 -4.6 0 1 466.50 70.12
  L 464.12 55.98
  A 0.31 0.31 0.0 0 0 463.50 56.03
  Z"
/>
<path fill="#ffffff" d="
  M 504.39 67.29
  L 504.00 70.30
  A 1.04 1.04 0.0 0 1 502.98 71.20
  L 496.00 71.31
  A 1.04 1.04 0.0 0 1 494.96 70.09
  L 500.48 39.33
  A 1.04 1.04 0.0 0 1 501.50 38.47
  L 513.81 38.50
  A 1.04 1.04 0.0 0 1 514.83 39.35
  L 520.47 70.04
  A 1.04 1.04 0.0 0 1 519.45 71.27
  L 512.31 71.33
  A 1.04 1.04 0.0 0 1 511.28 70.48
  L 510.68 67.28
  A 1.04 1.04 0.0 0 0 509.67 66.43
  L 505.43 66.38
  A 1.04 1.04 0.0 0 0 504.39 67.29
  Z
  M 509.17 60.30
  A 0.31 0.31 0.0 0 0 509.48 59.94
  L 508.01 50.09
  A 0.31 0.31 0.0 0 0 507.40 50.08
  L 505.59 59.92
  A 0.31 0.31 0.0 0 0 505.89 60.29
  L 509.17 60.30
  Z"
/>
<path fill="#ffffff" d="
  M 531.18 46.51
  L 526.68 46.30
  A 0.98 0.98 0.0 0 1 525.75 45.23
  L 526.30 39.38
  A 0.98 0.98 0.0 0 1 527.27 38.49
  L 547.28 38.50
  A 0.98 0.98 0.0 0 1 548.26 39.51
  L 548.10 45.27
  A 0.98 0.98 0.0 0 1 547.16 46.22
  L 542.64 46.41
  A 0.98 0.98 0.0 0 0 541.70 47.40
  L 541.94 70.19
  A 0.98 0.98 0.0 0 1 540.98 71.18
  L 532.98 71.30
  A 0.98 0.98 0.0 0 1 531.99 70.32
  L 532.11 47.49
  A 0.98 0.98 0.0 0 0 531.18 46.51
  Z"
/>
<path fill="#ffffff" d="
  M 568.51 66.44
  L 564.04 66.39
  A 0.91 0.91 0.0 0 0 563.13 67.14
  L 562.53 70.48
  A 0.91 0.91 0.0 0 1 561.65 71.23
  L 554.38 71.34
  A 0.91 0.91 0.0 0 1 553.47 70.27
  L 559.08 39.25
  A 0.91 0.91 0.0 0 1 559.98 38.50
  L 572.61 38.51
  A 0.91 0.91 0.0 0 1 573.50 39.26
  L 579.01 70.13
  A 0.91 0.91 0.0 0 1 578.12 71.20
  L 570.93 71.27
  A 0.91 0.91 0.0 0 1 570.03 70.53
  L 569.40 67.18
  A 0.91 0.91 0.0 0 0 568.51 66.44
  Z
  M 565.13 60.37
  L 567.47 60.37
  A 0.38 0.38 0.0 0 0 567.85 59.98
  L 567.85 59.83
  A 10.27 1.55 89.8 0 0 566.26 49.57
  L 566.26 49.57
  A 10.27 1.55 89.8 0 0 564.75 59.85
  L 564.75 60.00
  A 0.38 0.38 0.0 0 0 565.13 60.37
  Z"
/>
<path fill="#ffffff" d="
  M 596.48 48.62
  Q 594.19 55.94 596.54 61.66
  C 597.73 64.57 602.63 62.64 604.90 62.64
  Q 605.52 62.64 605.63 63.25
  L 606.67 69.35
  A 0.73 0.72 76.6 0 1 606.18 70.16
  Q 599.71 72.33 594.47 71.14
  C 585.41 69.07 585.07 56.88 586.24 49.51
  C 587.95 38.70 596.76 36.39 606.00 39.56
  A 1.08 1.07 14.6 0 1 606.71 40.76
  L 605.72 46.30
  A 1.42 1.41 13.6 0 1 603.91 47.40
  C 601.62 46.69 597.56 45.17 596.48 48.62
  Z"
/>
<path fill="#ffffff" d="
  M 623.27 59.43
  L 623.25 62.41
  A 1.01 1.01 0.0 0 0 624.25 63.42
  L 631.33 63.50
  A 1.01 1.01 0.0 0 1 632.32 64.55
  L 632.07 70.36
  A 1.01 1.01 0.0 0 1 631.06 71.33
  L 614.74 71.27
  A 1.01 1.01 0.0 0 1 613.73 70.26
  L 613.84 39.51
  A 1.01 1.01 0.0 0 1 614.85 38.50
  L 631.47 38.49
  A 1.01 1.01 0.0 0 1 632.48 39.57
  L 632.08 45.40
  A 1.01 1.01 0.0 0 1 631.08 46.34
  L 624.11 46.35
  A 1.01 1.01 0.0 0 0 623.10 47.41
  L 623.27 50.46
  A 1.01 1.01 0.0 0 0 624.28 51.42
  L 629.91 51.40
  A 1.01 1.01 0.0 0 1 630.93 52.43
  L 630.85 57.50
  A 1.01 1.01 0.0 0 1 629.83 58.50
  L 624.29 58.42
  A 1.01 1.01 0.0 0 0 623.27 59.43
  Z"
/>
<path fill="#ffffff" d="
  M 648.93 56.71
  L 649.02 70.94
  A 0.30 0.30 0.0 0 1 648.72 71.24
  L 640.85 71.29
  A 0.30 0.30 0.0 0 1 640.55 70.99
  L 640.50 38.81
  A 0.30 0.30 0.0 0 1 640.80 38.51
  L 649.81 38.52
  A 0.30 0.30 0.0 0 1 650.09 38.71
  L 655.73 52.63
  A 0.30 0.30 0.0 0 0 656.31 52.52
  L 656.58 38.76
  A 0.30 0.30 0.0 0 1 656.89 38.46
  L 664.43 38.59
  A 0.30 0.30 0.0 0 1 664.72 38.88
  L 664.87 70.96
  A 0.30 0.30 0.0 0 1 664.57 71.26
  L 655.84 71.27
  A 0.30 0.30 0.0 0 1 655.56 71.09
  L 649.51 56.59
  A 0.30 0.30 0.0 0 0 648.93 56.71
  Z"
/>
<path fill="#ffffff" d="
  M 102.52 41.58
  Q 103.97 41.38 103.38 41.72
  L 110.51 43.22
  Q 111.36 43.33 111.48 43.48
  Q 106.59 43.92 102.52 41.58
  Z"
/>
<path fill="#68acbc" d="
  M 145.36 51.38
  Q 147.03 52.02 146.92 53.70
  Q 146.86 54.55 146.21 54.00
  Q 144.76 52.77 144.13 50.99
  A 0.48 0.48 0.0 0 1 144.33 50.43
  Q 144.97 50.05 145.04 50.94
  A 0.51 0.49 -82.1 0 0 145.36 51.38
  Z"
/>
<path fill="#68acbc" d="
  M 158.17 67.82
  Q 158.13 67.91 158.08 68.00
  Q 159.37 74.32 167.12 72.31
  Q 166.69 72.10 167.66 72.04
  Q 170.98 72.48 171.20 70.18
  L 172.69 63.05
  Q 174.28 61.65 175.70 60.83
  C 178.86 59.01 185.48 62.21 188.10 63.91
  C 189.92 65.08 189.90 66.93 189.31 68.95
  Q 184.40 85.92 180.06 103.03
  C 179.55 105.02 177.30 105.43 175.39 105.10
  Q 152.01 100.96 128.86 95.73
  Q 128.37 95.61 128.37 95.10
  Q 128.38 92.10 129.17 90.71
  Q 132.82 84.32 134.62 77.21
  C 135.37 74.26 133.55 72.07 133.48 69.21
  Q 133.46 68.17 133.91 68.84
  Q 134.00 68.96 134.12 69.03
  Q 134.28 69.12 134.46 69.09
  Q 139.54 68.28 141.14 65.14
  Q 143.37 60.76 145.68 56.47
  C 148.43 51.36 153.08 55.82 156.26 57.51
  Q 156.70 57.75 156.71 58.25
  C 156.73 60.81 155.65 66.31 158.17 67.82
  Z"
/>
<path fill="#ffffff" d="
  M 158.08 68.00
  Q 161.39 72.33 167.12 72.31
  Q 159.37 74.32 158.08 68.00
  Z"
/>
</svg>
