<?xml version="1.0" encoding="UTF-8" standalone="no"?>
<!DOCTYPE svg PUBLIC "-//W3C//DTD SVG 1.1//EN" "http://www.w3.org/Graphics/SVG/1.1/DTD/svg11.dtd">
<svg xmlns="http://www.w3.org/2000/svg" version="1.1" viewBox="0.00 0.00 278.00 38.00">
<g stroke-width="2.00" fill="none" stroke-linecap="butt">
<path stroke="#4d7517" vector-effect="non-scaling-stroke" d="
  M 24.08 3.80
  L 24.11 12.24"
/>
<path stroke="#4d7517" vector-effect="non-scaling-stroke" d="
  M 24.03 20.28
  L 24.03 28.83"
/>
</g>
<path fill="#22520f" d="
  M 24.08 3.80
  L 24.11 12.24
  C 22.20 10.49 18.34 5.09 15.68 7.13
  Q 12.85 9.30 15.56 11.95
  Q 19.83 16.13 24.03 20.28
  L 24.03 28.83
  Q 17.76 22.53 11.76 16.25
  C 8.72 13.05 3.67 16.51 7.52 20.41
  Q 14.00 26.99 20.60 33.46
  A 0.62 0.61 44.7 0 1 20.61 34.34
  L 17.31 37.58
  Q 16.87 38.01 16.43 37.58
  Q 10.41 31.60 4.46 25.60
  Q 1.51 22.62 0.82 20.80
  C -1.17 15.59 2.65 10.07 8.13 9.36
  Q 8.62 9.30 8.71 8.82
  C 10.20 0.85 17.96 -1.95 24.08 3.80
  Z"
/>
<path fill="#77971f" d="
  M 31.23 38.00
  Q 31.12 38.00 31.02 38.00
  L 27.38 34.29
  Q 27.02 33.92 27.38 33.55
  Q 34.00 26.88 40.45 20.23
  Q 43.32 17.28 40.42 15.35
  A 2.57 2.57 0.0 0 0 37.17 15.68
  L 24.03 28.83
  L 24.03 20.28
  Q 28.55 15.83 32.89 11.37
  C 35.40 8.80 31.08 4.62 27.85 8.14
  Q 26.11 10.04 24.11 12.24
  L 24.08 3.80
  C 29.41 -1.94 38.09 0.68 39.24 8.42
  Q 39.32 8.92 39.81 9.01
  C 45.16 10.04 49.48 14.91 47.71 20.30
  Q 47.00 22.45 43.91 25.63
  Q 37.72 31.99 31.23 38.00
  Z"
/>
<path fill="#77971f" d="
  M 200.03 18.78
  Q 202.55 19.57 203.07 21.75
  C 205.58 32.22 194.42 32.61 187.16 31.68
  Q 186.74 31.63 186.74 31.21
  L 187.02 7.29
  Q 187.02 6.88 187.43 6.89
  C 191.03 6.94 196.61 6.22 199.43 8.25
  Q 203.14 10.93 201.29 16.07
  A 1.94 1.92 75.0 0 1 200.93 16.70
  L 199.81 18.04
  Q 199.36 18.58 200.03 18.78
  Z
  M 191.27 10.44
  L 191.19 16.60
  A 0.41 0.41 0.0 0 0 191.60 17.02
  L 193.79 17.04
  A 3.52 3.31 0.7 0 0 197.35 13.78
  L 197.35 13.42
  A 3.52 3.31 0.7 0 0 193.87 10.06
  L 191.68 10.04
  A 0.41 0.41 0.0 0 0 191.27 10.44
  Z
  M 191.20 21.41
  L 191.20 27.51
  A 0.45 0.45 0.0 0 0 191.65 27.96
  L 194.35 27.96
  A 4.61 3.33 -0.0 0 0 198.96 24.63
  L 198.96 24.29
  A 4.61 3.33 0.0 0 0 194.35 20.96
  L 191.65 20.96
  A 0.45 0.45 0.0 0 0 191.20 21.41
  Z"
/>
<path fill="#22520f" d="
  M 63.56 15.79
  L 63.57 31.04
  Q 63.57 31.64 62.96 31.63
  L 59.55 31.59
  Q 59.01 31.58 59.01 31.05
  L 59.25 7.45
  A 0.54 0.53 -88.4 0 1 59.80 6.92
  L 62.66 7.02
  Q 63.32 7.04 63.69 7.58
  L 71.27 18.57
  Q 71.61 19.08 71.94 18.56
  L 79.11 7.42
  A 0.94 0.92 15.6 0 1 79.90 6.99
  L 83.04 6.97
  A 0.57 0.57 0.0 0 1 83.61 7.54
  L 83.62 30.96
  Q 83.62 31.56 83.03 31.56
  L 79.61 31.58
  Q 79.01 31.58 79.01 30.98
  L 79.00 15.49
  A 0.21 0.21 0.0 0 0 78.62 15.38
  L 73.22 23.76
  A 2.01 2.01 0.0 0 1 69.87 23.81
  L 64.23 15.58
  A 0.37 0.37 0.0 0 0 63.56 15.79
  Z"
/>
<path fill="#22520f" d="
  M 96.80 31.27
  L 96.80 7.80
  A 0.80 0.80 0.0 0 1 97.60 7.00
  L 100.20 7.01
  A 0.80 0.80 0.0 0 1 101.00 7.81
  L 100.99 29.95
  A 0.80 0.80 0.0 0 1 100.55 30.66
  L 97.96 31.98
  A 0.80 0.80 0.0 0 1 96.80 31.27
  Z"
/>
<path fill="#22520f" d="
  M 105.00 31.39
  L 105.00 7.75
  A 0.72 0.72 0.0 0 1 105.71 7.03
  L 108.54 7.02
  A 0.72 0.72 0.0 0 1 109.26 7.73
  L 109.27 30.02
  A 0.72 0.72 0.0 0 1 108.86 30.67
  L 106.03 32.04
  A 0.72 0.72 0.0 0 1 105.00 31.39
  Z"
/>
<path fill="#24490f" d="
  M 178.05 14.17
  L 178.37 7.41
  A 0.48 0.48 0.0 0 1 178.84 6.95
  L 181.97 6.93
  Q 182.52 6.92 182.52 7.47
  L 182.30 30.21
  Q 182.29 30.80 181.73 30.97
  C 163.32 36.71 162.21 13.64 177.38 14.77
  Q 178.02 14.82 178.05 14.17
  Z
  M 177.95 27.56
  L 177.95 18.96
  A 0.90 0.90 0.0 0 0 177.05 18.06
  L 176.16 18.06
  A 5.01 5.01 0.0 0 0 171.15 23.07
  L 171.15 23.45
  A 5.01 5.01 0.0 0 0 176.16 28.46
  L 177.05 28.46
  A 0.90 0.90 0.0 0 0 177.95 27.56
  Z"
/>
<circle fill="#22520f" cx="90.29" cy="10.11" r="2.54"/>
<path fill="#24490f" d="
  M 147.43 30.65
  C 137.95 36.29 132.13 21.10 146.50 21.12
  A 1.20 1.20 0.0 0 0 147.12 18.89
  Q 143.99 17.01 140.78 19.04
  A 0.51 0.51 0.0 0 1 140.07 18.86
  L 139.13 17.14
  A 0.68 0.68 0.0 0 1 139.39 16.22
  C 142.65 14.46 148.82 13.62 151.13 17.40
  C 152.78 20.08 152.02 27.67 152.11 31.10
  Q 152.12 31.46 151.78 31.60
  Q 149.42 32.53 147.99 30.75
  Q 147.75 30.46 147.43 30.65
  Z
  M 146.47 24.05
  L 142.83 24.57
  A 0.91 0.91 0.0 0 0 142.06 25.61
  L 142.23 26.82
  A 2.35 2.20 -8.2 0 0 144.87 28.66
  L 145.67 28.55
  A 2.35 2.20 -8.2 0 0 147.68 26.04
  L 147.50 24.82
  A 0.91 0.91 0.0 0 0 146.47 24.05
  Z"
/>
<path fill="#24490f" d="
  M 160.40 16.14
  Q 162.88 14.67 165.83 14.95
  Q 166.64 15.03 166.32 15.78
  L 165.12 18.65
  Q 164.91 19.15 164.41 18.93
  Q 162.26 18.02 160.36 19.67
  Q 159.97 20.00 159.96 20.51
  C 159.89 23.68 161.28 32.13 156.14 31.69
  Q 155.61 31.65 155.61 31.12
  L 155.56 15.95
  Q 155.55 15.43 156.06 15.29
  Q 158.16 14.74 159.70 16.08
  Q 160.03 16.36 160.40 16.14
  Z"
/>
<path fill="#77971f" d="
  M 211.23 15.98
  Q 213.45 14.33 216.23 14.94
  A 1.08 1.08 0.0 0 1 216.97 16.46
  L 215.92 18.64
  A 0.79 0.78 21.3 0 1 214.99 19.04
  Q 213.05 18.47 211.28 19.46
  A 0.94 0.93 -15.0 0 0 210.81 20.27
  Q 210.81 24.59 210.58 28.74
  Q 210.44 31.46 207.30 32.07
  Q 205.94 32.34 205.96 30.95
  L 206.20 15.79
  Q 206.21 15.24 206.74 15.09
  Q 208.90 14.49 210.30 15.91
  Q 210.73 16.35 211.23 15.98
  Z"
/>
<path fill="#77971f" d="
  M 224.7086 32.1317
  A 8.80 8.49 96.6 0 1 217.2863 22.4142
  A 8.80 8.49 96.6 0 1 226.7314 14.6483
  A 8.80 8.49 96.6 0 1 234.1537 24.3658
  A 8.80 8.49 96.6 0 1 224.7086 32.1317
  Z
  M 225.6791 28.5000
  A 5.22 3.84 89.9 0 0 229.5100 23.2733
  A 5.22 3.84 89.9 0 0 225.6609 18.0600
  A 5.22 3.84 89.9 0 0 221.8300 23.2867
  A 5.22 3.84 89.9 0 0 225.6791 28.5000
  Z"
/>
<path fill="#77971f" d="
  M 278.00 21.90
  L 278.00 23.74
  C 277.54 26.96 278.95 30.82 274.71 31.98
  Q 273.22 32.39 273.23 30.85
  Q 273.26 26.38 273.17 21.50
  C 273.09 17.36 269.29 18.11 267.41 20.12
  Q 267.06 20.49 267.05 21.00
  C 267.01 24.49 268.59 32.15 263.03 32.07
  A 0.53 0.53 0.0 0 1 262.50 31.53
  L 262.76 15.52
  Q 262.77 15.14 263.15 15.06
  Q 265.34 14.61 267.07 15.88
  A 0.81 0.79 -39.1 0 0 267.89 15.95
  Q 277.13 11.59 278.00 21.90
  Z"
/>
<path fill="#22520f" d="
  M 88.15 31.17
  L 88.09 15.81
  A 0.79 0.79 0.0 0 1 88.87 15.02
  L 91.47 14.99
  A 0.79 0.79 0.0 0 1 92.27 15.78
  L 92.28 29.94
  A 0.79 0.79 0.0 0 1 91.83 30.66
  L 89.28 31.88
  A 0.79 0.79 0.0 0 1 88.15 31.17
  Z"
/>
<path fill="#24490f" d="
  M 124.89 22.21
  Q 124.40 20.70 123.88 22.20
  L 121.04 30.43
  A 2.17 2.17 0.0 0 1 116.95 30.45
  L 111.64 15.53
  Q 111.43 14.96 112.04 14.99
  L 115.19 15.14
  Q 115.76 15.17 115.93 15.71
  L 118.74 24.74
  Q 119.25 26.38 119.79 24.75
  L 122.67 16.14
  A 2.00 2.00 0.0 0 1 126.47 16.17
  L 129.34 25.19
  A 0.46 0.45 -45.4 0 0 130.21 25.18
  L 133.16 15.53
  Q 133.31 15.02 133.84 15.02
  L 136.73 15.00
  Q 137.48 14.99 137.22 15.69
  L 131.81 30.52
  A 2.23 2.23 0.0 0 1 127.59 30.45
  L 124.89 22.21
  Z"
/>
<path fill="#77971f" d="
  M 253.17 25.03
  L 256.08 15.52
  Q 256.23 15.01 256.76 15.01
  L 259.93 15.00
  Q 260.51 15.00 260.32 15.54
  Q 258.08 21.97 255.82 28.35
  Q 255.05 30.53 253.30 31.77
  A 1.91 1.91 0.0 0 1 250.37 30.76
  L 247.77 21.98
  Q 247.46 20.92 247.10 21.97
  Q 246.27 24.36 244.69 29.41
  Q 243.76 32.36 240.60 32.01
  Q 240.14 31.95 240.00 31.52
  L 234.65 15.54
  Q 234.47 15.00 235.03 15.00
  L 238.28 15.00
  Q 238.83 15.00 239.00 15.53
  L 241.97 25.01
  A 0.36 0.36 0.0 0 0 242.66 25.01
  L 245.42 16.26
  A 2.17 2.16 44.4 0 1 249.54 16.22
  L 252.52 25.04
  Q 252.86 26.04 253.17 25.03
  Z"
/>
</svg>
