<?xml version="1.0" encoding="UTF-8" standalone="no"?>
<!DOCTYPE svg PUBLIC "-//W3C//DTD SVG 1.1//EN" "http://www.w3.org/Graphics/SVG/1.1/DTD/svg11.dtd">
<svg xmlns="http://www.w3.org/2000/svg" version="1.1" viewBox="0.00 0.00 663.00 127.00">
<path fill="#000000" d="
  M 307.33 0.00
  L 316.94 0.00
  Q 329.59 4.51 330.43 17.68
  A 0.42 0.42 0.0 0 1 330.01 18.13
  L 320.97 18.12
  Q 320.49 18.12 320.43 17.64
  C 319.28 6.82 304.94 6.98 303.64 16.99
  Q 302.84 23.20 307.78 25.79
  Q 309.25 26.56 312.93 26.77
  C 323.12 27.35 331.41 35.14 332.25 45.45
  Q 332.29 45.93 332.77 45.92
  L 341.97 45.77
  Q 342.59 45.76 342.63 46.38
  C 343.19 56.26 353.65 60.77 360.47 53.31
  C 365.01 48.35 363.24 41.26 357.73 37.89
  C 354.21 35.73 349.43 36.73 345.70 35.18
  C 336.14 31.19 331.96 21.27 335.43 11.65
  Q 338.46 3.22 348.01 0.00
  L 357.78 0.00
  Q 368.54 4.01 371.26 16.58
  A 1.24 1.24 0.0 0 1 370.06 18.07
  L 361.71 18.17
  Q 361.23 18.17 361.13 17.71
  Q 359.10 8.42 351.00 9.84
  C 343.39 11.17 341.34 22.04 347.86 25.53
  Q 348.86 26.06 354.45 26.88
  Q 366.22 28.60 370.94 38.68
  C 374.74 46.82 372.61 55.85 365.86 61.55
  C 355.57 70.23 340.30 66.93 334.64 54.74
  C 333.76 52.85 333.60 50.31 332.91 48.04
  Q 332.52 46.79 332.34 48.09
  C 328.79 73.43 292.67 71.86 292.66 46.38
  Q 292.66 45.83 293.22 45.83
  L 301.01 45.83
  A 0.95 0.95 0.0 0 1 301.95 46.65
  Q 303.08 55.07 309.88 56.54
  C 322.34 59.26 327.60 42.23 316.01 37.28
  Q 314.77 36.75 310.37 36.36
  C 289.89 34.55 288.09 6.55 307.33 0.00
  Z"
/>
<path fill="#000000" d="
  M 70.42 55.08
  L 89.44 55.12
  A 0.48 0.48 0.0 0 1 89.92 55.60
  L 89.94 63.51
  A 0.48 0.48 0.0 0 1 89.46 63.99
  L 61.02 64.01
  A 0.48 0.48 0.0 0 1 60.54 63.53
  L 60.39 1.89
  A 0.48 0.48 0.0 0 1 60.87 1.41
  L 69.53 1.40
  A 0.48 0.48 0.0 0 1 70.01 1.88
  L 69.94 54.60
  A 0.48 0.48 0.0 0 0 70.42 55.08
  Z"
/>
<path fill="#000000" d="
  M 103.57 28.32
  L 122.54 28.52
  A 0.47 0.47 0.0 0 1 123.00 28.99
  L 123.02 36.72
  A 0.47 0.47 0.0 0 1 122.55 37.19
  L 103.53 37.24
  A 0.47 0.47 0.0 0 0 103.06 37.71
  L 103.09 63.53
  A 0.47 0.47 0.0 0 1 102.62 64.00
  L 94.24 63.98
  A 0.47 0.47 0.0 0 1 93.77 63.51
  L 93.63 1.83
  A 0.47 0.47 0.0 0 1 94.10 1.36
  L 122.61 1.40
  A 0.47 0.47 0.0 0 1 123.08 1.87
  L 123.03 10.41
  A 0.47 0.47 0.0 0 1 122.56 10.88
  L 103.63 10.87
  A 0.47 0.47 0.0 0 0 103.16 11.34
  L 103.10 27.84
  A 0.47 0.47 0.0 0 0 103.57 28.32
  Z"
/>
<path fill="#fe0314" d="
  M 193.99 43.92
  A 0.41 0.41 0.0 0 0 194.74 44.08
  Q 207.68 25.08 220.50 6.19
  Q 222.73 2.91 224.26 2.05
  C 226.41 0.84 232.58 0.54 232.60 4.50
  Q 232.72 22.75 232.58 41.00
  Q 232.57 42.44 232.76 43.39
  A 1.06 1.05 56.5 0 0 234.67 43.78
  Q 248.28 23.55 261.27 4.28
  C 263.75 0.60 268.69 0.95 272.51 1.54
  A 0.54 0.54 0.0 0 1 272.88 2.37
  L 231.36 63.35
  Q 231.08 63.76 230.59 63.76
  L 225.10 63.72
  Q 223.98 63.72 223.98 62.60
  L 223.80 20.56
  A 0.63 0.62 87.9 0 0 223.13 19.93
  Q 222.18 20.01 221.70 20.71
  Q 207.29 41.83 193.30 63.22
  A 1.02 1.02 0.0 0 1 192.44 63.69
  L 185.32 63.76
  A 0.69 0.69 0.0 0 1 184.62 63.07
  L 184.50 3.31
  A 1.93 1.93 0.0 0 1 185.95 1.44
  Q 188.12 0.88 191.25 1.41
  C 193.40 1.77 193.74 2.58 193.74 4.73
  Q 193.71 23.74 193.89 42.75
  Q 193.90 43.41 193.99 43.92
  Z"
/>
<path fill="#000000" d="
  M 384.53 28.32
  L 403.66 28.40
  A 0.57 0.57 0.0 0 1 404.23 28.97
  L 404.23 36.62
  A 0.57 0.57 0.0 0 1 403.66 37.19
  L 384.58 37.22
  A 0.57 0.57 0.0 0 0 384.01 37.79
  L 383.94 54.35
  A 0.57 0.57 0.0 0 0 384.51 54.92
  L 403.61 54.98
  A 0.57 0.57 0.0 0 1 404.17 55.54
  L 404.24 63.45
  A 0.57 0.57 0.0 0 1 403.67 64.03
  L 375.40 63.97
  A 0.57 0.57 0.0 0 1 374.83 63.40
  L 374.73 1.83
  A 0.57 0.57 0.0 0 1 375.30 1.26
  L 403.77 1.32
  A 0.57 0.57 0.0 0 1 404.34 1.89
  L 404.26 10.25
  A 0.57 0.57 0.0 0 1 403.70 10.81
  L 384.51 10.86
  A 0.57 0.57 0.0 0 0 383.94 11.43
  L 383.96 27.75
  A 0.57 0.57 0.0 0 0 384.53 28.32
  Z"
/>
<path fill="#000000" d="
  M 512.40 22.61
  A 0.35 0.35 0.0 0 0 511.75 22.43
  L 486.52 63.57
  Q 486.24 64.02 485.72 64.02
  L 479.92 64.09
  A 0.81 0.80 89.3 0 1 479.11 63.29
  L 479.05 22.74
  A 0.26 0.26 0.0 0 0 478.56 22.61
  L 454.43 63.45
  A 1.11 1.09 -74.7 0 1 453.48 64.00
  L 439.81 64.01
  A 1.11 1.11 0.0 0 1 438.89 63.52
  L 418.68 34.06
  A 0.36 0.36 0.0 0 1 418.99 33.49
  C 423.96 33.68 430.25 34.34 434.44 32.32
  C 442.86 28.26 443.04 15.63 434.23 11.81
  C 430.26 10.08 423.38 10.82 418.43 10.86
  Q 418.02 10.86 418.02 11.27
  L 417.96 63.41
  A 0.62 0.62 0.0 0 1 417.34 64.03
  L 409.16 63.99
  Q 408.58 63.99 408.58 63.41
  L 408.38 2.46
  A 1.22 1.21 0.2 0 1 409.62 1.24
  C 417.94 1.42 429.31 0.46 436.05 2.52
  C 447.41 5.99 453.08 18.42 448.65 29.19
  Q 445.39 37.11 435.93 41.75
  A 0.55 0.55 0.0 0 0 435.71 42.54
  L 445.45 57.29
  Q 446.23 58.47 446.96 57.26
  L 480.57 1.80
  A 0.94 0.92 -73.5 0 1 481.38 1.35
  L 488.16 1.37
  Q 488.77 1.38 488.77 1.98
  L 488.71 40.06
  A 0.38 0.38 0.0 0 0 489.41 40.26
  Q 500.91 21.67 512.42 2.92
  C 513.84 0.61 519.27 1.17 521.48 1.62
  Q 522.00 1.72 522.00 2.25
  L 521.93 55.87
  A 0.39 0.39 0.0 0 0 522.65 56.09
  L 559.29 1.93
  Q 559.57 1.52 560.07 1.52
  L 568.63 1.48
  A 0.90 0.89 0.3 0 1 569.53 2.38
  L 569.34 63.45
  Q 569.33 64.04 568.75 64.05
  L 560.78 64.17
  A 0.63 0.63 0.0 0 1 560.14 63.54
  L 560.17 46.45
  Q 560.17 45.98 559.70 45.98
  L 541.71 45.86
  Q 541.13 45.85 540.80 46.31
  L 528.37 63.37
  A 1.71 1.70 18.2 0 1 527.00 64.06
  L 513.29 64.05
  A 0.76 0.76 0.0 0 1 512.54 63.29
  L 512.40 22.61
  Z
  M 546.63 36.43
  A 0.33 0.33 0.0 0 0 546.90 36.95
  L 559.78 36.82
  A 0.33 0.33 0.0 0 0 560.11 36.49
  L 560.09 18.56
  A 0.33 0.33 0.0 0 0 559.49 18.37
  L 546.63 36.43
  Z"
/>
<path fill="#000000" d="
  M 583.96 22.19
  A 0.38 0.38 0.0 0 0 583.58 22.57
  L 583.48 63.51
  Q 583.48 64.02 582.98 64.02
  L 575.18 63.99
  A 0.56 0.56 0.0 0 1 574.62 63.43
  L 574.46 2.20
  Q 574.46 1.35 575.30 1.36
  L 583.16 1.42
  Q 583.62 1.42 583.83 1.82
  L 606.03 43.04
  A 0.39 0.38 -35.1 0 0 606.63 43.14
  Q 606.88 42.91 606.88 42.50
  Q 606.67 22.21 606.85 1.92
  Q 606.85 1.39 607.37 1.39
  L 615.41 1.33
  Q 615.99 1.32 615.99 1.91
  L 615.91 63.43
  A 0.59 0.58 -89.5 0 1 615.32 64.02
  L 607.20 64.00
  A 0.90 0.89 76.2 0 1 606.43 63.53
  Q 595.48 43.00 584.53 22.50
  Q 584.37 22.20 583.96 22.19
  Z"
/>
<path fill="#000000" d="
  M 630.10 22.03
  A 0.38 0.38 0.0 0 0 629.38 22.21
  L 629.24 63.50
  Q 629.24 63.98 628.75 63.98
  L 621.09 64.00
  Q 620.44 64.00 620.43 63.35
  L 620.21 1.96
  Q 620.20 1.37 620.79 1.37
  L 628.92 1.45
  A 0.88 0.87 75.6 0 1 629.69 1.91
  L 651.70 42.79
  Q 652.29 43.88 652.82 42.77
  Q 653.12 42.13 652.94 41.07
  Q 652.75 39.95 652.75 39.41
  Q 652.71 20.65 652.50 1.88
  Q 652.50 1.34 653.04 1.34
  L 660.86 1.42
  A 0.94 0.94 0.0 0 1 661.80 2.36
  L 661.71 62.82
  Q 661.71 63.98 660.55 63.98
  L 653.09 64.02
  Q 652.55 64.02 652.29 63.54
  L 630.10 22.03
  Z"
/>
<path fill="#000000" d="
  M 44.48 45.96
  L 25.79 45.89
  A 0.35 0.35 0.0 0 0 25.50 46.03
  L 12.43 63.86
  A 0.35 0.35 0.0 0 1 12.15 64.00
  L 2.34 64.00
  A 0.35 0.35 0.0 0 1 2.05 63.45
  L 44.11 1.64
  A 0.35 0.35 0.0 0 1 44.39 1.49
  L 53.68 1.48
  A 0.35 0.35 0.0 0 1 54.03 1.83
  L 53.99 63.65
  A 0.35 0.35 0.0 0 1 53.64 64.00
  L 45.28 63.99
  A 0.35 0.35 0.0 0 1 44.93 63.64
  L 44.83 46.31
  A 0.35 0.35 0.0 0 0 44.48 45.96
  Z
  M 31.34 36.14
  A 0.48 0.48 0.0 0 0 31.73 36.90
  L 44.37 36.85
  A 0.48 0.48 0.0 0 0 44.85 36.37
  L 44.80 18.60
  A 0.48 0.48 0.0 0 0 43.93 18.33
  L 31.34 36.14
  Z"
/>
<path fill="#000000" d="
  M 152.44 45.88
  L 134.25 45.86
  Q 133.68 45.86 133.35 46.32
  L 120.82 63.58
  Q 120.48 64.05 119.90 64.04
  L 110.26 63.99
  Q 109.70 63.99 110.01 63.52
  L 151.81 2.33
  Q 152.09 1.91 152.59 1.82
  C 155.54 1.24 162.00 0.24 162.01 5.08
  Q 162.09 34.16 161.99 63.27
  A 0.72 0.71 -0.4 0 1 161.28 63.98
  L 153.76 64.00
  A 0.74 0.73 89.6 0 1 153.02 63.26
  L 153.00 46.44
  Q 153.00 45.88 152.44 45.88
  Z
  M 139.47 36.02
  A 0.56 0.56 0.0 0 0 139.93 36.91
  L 152.42 36.85
  A 0.56 0.56 0.0 0 0 152.98 36.29
  L 152.95 18.66
  A 0.56 0.56 0.0 0 0 151.93 18.34
  L 139.47 36.02
  Z"
/>
<path fill="#000000" d="
  M 280.72 45.94
  L 261.99 45.71
  A 0.33 0.33 0.0 0 0 261.72 45.85
  L 248.66 63.87
  A 0.33 0.33 0.0 0 1 248.39 64.01
  L 238.78 64.01
  A 0.33 0.33 0.0 0 1 238.51 63.50
  L 280.36 1.67
  A 0.33 0.33 0.0 0 1 280.64 1.53
  L 289.91 1.79
  A 0.33 0.33 0.0 0 1 290.23 2.12
  L 290.16 63.77
  A 0.33 0.33 0.0 0 1 289.83 64.10
  L 281.42 64.11
  A 0.33 0.33 0.0 0 1 281.09 63.78
  L 281.05 46.27
  A 0.33 0.33 0.0 0 0 280.72 45.94
  Z
  M 267.49 36.23
  A 0.48 0.48 0.0 0 0 267.89 36.99
  L 280.55 36.84
  A 0.48 0.48 0.0 0 0 281.02 36.36
  L 281.03 18.74
  A 0.48 0.48 0.0 0 0 280.16 18.46
  L 267.49 36.23
  Z"
/>
<path fill="#dfcc97" d="
  M 660.61 83.43
  L 1.39 83.30
  A 0.54 0.54 0.0 0 1 0.86 82.87
  Q -0.06 78.21 0.57 73.51
  Q 0.66 72.88 1.30 72.88
  Q 23.91 73.07 46.39 72.53
  C 48.71 72.47 51.27 72.72 53.75 72.71
  Q 72.00 72.62 90.26 72.52
  C 110.65 72.41 131.01 72.99 151.42 72.68
  Q 157.06 72.60 165.57 72.94
  C 176.52 73.39 187.35 72.25 197.25 72.95
  Q 203.97 73.43 219.88 73.00
  C 244.29 72.34 268.82 73.00 293.25 72.94
  Q 378.37 72.72 463.50 72.69
  C 472.40 72.69 481.16 71.72 489.99 72.17
  C 502.12 72.78 514.97 72.27 526.32 72.57
  Q 543.10 73.02 559.88 72.48
  Q 566.75 72.26 592.75 72.86
  C 600.09 73.03 610.06 72.46 619.08 72.74
  Q 639.12 73.35 659.51 72.29
  A 1.86 1.85 -1.3 0 1 661.46 74.15
  L 661.41 82.63
  Q 661.41 83.43 660.61 83.43
  Z"
/>
<rect fill="#dfcc97" x="0.43" y="86.94" width="660.82" height="9.68" rx="0.87"/>
<path fill="#dfcc97" d="
  M 625.25 109.80
  Q 379.85 110.31 32.43 109.68
  C 21.92 109.66 11.83 109.51 1.32 110.70
  Q 0.93 110.74 0.85 110.36
  Q -0.18 105.77 0.52 101.13
  A 0.62 0.61 4.3 0 1 1.13 100.61
  L 660.93 100.54
  Q 661.58 100.54 661.56 101.19
  L 661.24 109.95
  Q 661.22 110.41 660.77 110.38
  Q 646.75 109.75 625.25 109.80
  Z"
/>
<path fill="#dfcc97" d="
  M 659.18 124.12
  L 2.04 124.07
  Q 0.97 124.07 0.73 123.04
  Q -0.18 119.19 0.73 115.28
  A 1.57 1.57 0.0 0 1 2.26 114.06
  L 660.68 114.02
  Q 661.17 114.02 661.23 114.51
  Q 661.77 118.62 660.91 122.72
  A 1.77 1.76 5.8 0 1 659.18 124.12
  Z"
/>
</svg>
